G04 #@! TF.FileFunction,Copper,L1,Top,Signal*
%FSLAX46Y46*%
G04 Gerber Fmt 4.6, Leading zero omitted, Abs format (unit mm)*
G04 Created by KiCad (PCBNEW (2015-08-05 BZR 6055, Git fa29c62)-product) date 18/08/2015 14:45:33*
%MOMM*%
G01*
G04 APERTURE LIST*
%ADD10C,0.152400*%
%ADD11R,1.905000X2.286000*%
%ADD12R,2.499360X2.499360*%
%ADD13C,0.635000*%
%ADD14R,1.397000X0.889000*%
%ADD15R,0.889000X1.397000*%
%ADD16R,1.099820X1.501140*%
%ADD17C,3.101340*%
%ADD18R,1.905000X1.905000*%
%ADD19C,2.032000*%
%ADD20C,0.889000*%
%ADD21C,1.016000*%
%ADD22C,0.254000*%
%ADD23C,0.508000*%
%ADD24C,0.635000*%
%ADD25C,0.381000*%
%ADD26C,0.762000*%
%ADD27C,0.304800*%
G04 APERTURE END LIST*
D10*
D11*
X34925000Y-38100000D03*
X31115000Y-38100000D03*
X34925000Y-34036000D03*
X31115000Y-34036000D03*
X102489000Y-47752000D03*
X98679000Y-47752000D03*
X102489000Y-43688000D03*
X98679000Y-43688000D03*
X34925000Y-76962000D03*
X31115000Y-76962000D03*
X34925000Y-72898000D03*
X31115000Y-72898000D03*
X73533000Y-47752000D03*
X69723000Y-47752000D03*
X73533000Y-43688000D03*
X69723000Y-43688000D03*
X44577000Y-47752000D03*
X40767000Y-47752000D03*
X44577000Y-43688000D03*
X40767000Y-43688000D03*
X44577000Y-67056000D03*
X40767000Y-67056000D03*
X44577000Y-62992000D03*
X40767000Y-62992000D03*
X73533000Y-38100000D03*
X69723000Y-38100000D03*
X73533000Y-34036000D03*
X69723000Y-34036000D03*
X121793000Y-38100000D03*
X117983000Y-38100000D03*
X121793000Y-34036000D03*
X117983000Y-34036000D03*
X34925000Y-47752000D03*
X31115000Y-47752000D03*
X34925000Y-43688000D03*
X31115000Y-43688000D03*
X34925000Y-67056000D03*
X31115000Y-67056000D03*
X34925000Y-62992000D03*
X31115000Y-62992000D03*
X121793000Y-47752000D03*
X117983000Y-47752000D03*
X121793000Y-43688000D03*
X117983000Y-43688000D03*
X121793000Y-67056000D03*
X117983000Y-67056000D03*
X121793000Y-62992000D03*
X117983000Y-62992000D03*
X44577000Y-57404000D03*
X40767000Y-57404000D03*
X44577000Y-53340000D03*
X40767000Y-53340000D03*
X112141000Y-38100000D03*
X108331000Y-38100000D03*
X112141000Y-34036000D03*
X108331000Y-34036000D03*
X121793000Y-57404000D03*
X117983000Y-57404000D03*
X121793000Y-53340000D03*
X117983000Y-53340000D03*
X44577000Y-76962000D03*
X40767000Y-76962000D03*
X44577000Y-72898000D03*
X40767000Y-72898000D03*
X121793000Y-76962000D03*
X117983000Y-76962000D03*
X121793000Y-72898000D03*
X117983000Y-72898000D03*
X112141000Y-76962000D03*
X108331000Y-76962000D03*
X112141000Y-72898000D03*
X108331000Y-72898000D03*
X112141000Y-57404000D03*
X108331000Y-57404000D03*
X112141000Y-53340000D03*
X108331000Y-53340000D03*
X112141000Y-47752000D03*
X108331000Y-47752000D03*
X112141000Y-43688000D03*
X108331000Y-43688000D03*
X34925000Y-57404000D03*
X31115000Y-57404000D03*
X34925000Y-53340000D03*
X31115000Y-53340000D03*
X112141000Y-67056000D03*
X108331000Y-67056000D03*
X112141000Y-62992000D03*
X108331000Y-62992000D03*
X54229000Y-47752000D03*
X50419000Y-47752000D03*
X54229000Y-43688000D03*
X50419000Y-43688000D03*
X54229000Y-67056000D03*
X50419000Y-67056000D03*
X54229000Y-62992000D03*
X50419000Y-62992000D03*
X54229000Y-38100000D03*
X50419000Y-38100000D03*
X54229000Y-34036000D03*
X50419000Y-34036000D03*
X92837000Y-38100000D03*
X89027000Y-38100000D03*
X92837000Y-34036000D03*
X89027000Y-34036000D03*
X54229000Y-57404000D03*
X50419000Y-57404000D03*
X54229000Y-53340000D03*
X50419000Y-53340000D03*
X92837000Y-47752000D03*
X89027000Y-47752000D03*
X92837000Y-43688000D03*
X89027000Y-43688000D03*
X92837000Y-67056000D03*
X89027000Y-67056000D03*
X92837000Y-62992000D03*
X89027000Y-62992000D03*
X54229000Y-76962000D03*
X50419000Y-76962000D03*
X54229000Y-72898000D03*
X50419000Y-72898000D03*
X92837000Y-57404000D03*
X89027000Y-57404000D03*
X92837000Y-53340000D03*
X89027000Y-53340000D03*
X63881000Y-76962000D03*
X60071000Y-76962000D03*
X63881000Y-72898000D03*
X60071000Y-72898000D03*
X92837000Y-76962000D03*
X89027000Y-76962000D03*
X92837000Y-72898000D03*
X89027000Y-72898000D03*
X102489000Y-76962000D03*
X98679000Y-76962000D03*
X102489000Y-72898000D03*
X98679000Y-72898000D03*
X102489000Y-57404000D03*
X98679000Y-57404000D03*
X102489000Y-53340000D03*
X98679000Y-53340000D03*
X63881000Y-57404000D03*
X60071000Y-57404000D03*
X63881000Y-53340000D03*
X60071000Y-53340000D03*
X102489000Y-67056000D03*
X98679000Y-67056000D03*
X102489000Y-62992000D03*
X98679000Y-62992000D03*
X63881000Y-67056000D03*
X60071000Y-67056000D03*
X63881000Y-62992000D03*
X60071000Y-62992000D03*
X102489000Y-38100000D03*
X98679000Y-38100000D03*
X102489000Y-34036000D03*
X98679000Y-34036000D03*
X83185000Y-38100000D03*
X79375000Y-38100000D03*
X83185000Y-34036000D03*
X79375000Y-34036000D03*
X63881000Y-47752000D03*
X60071000Y-47752000D03*
X63881000Y-43688000D03*
X60071000Y-43688000D03*
X83185000Y-47752000D03*
X79375000Y-47752000D03*
X83185000Y-43688000D03*
X79375000Y-43688000D03*
X83185000Y-67056000D03*
X79375000Y-67056000D03*
X83185000Y-62992000D03*
X79375000Y-62992000D03*
X63881000Y-38100000D03*
X60071000Y-38100000D03*
X63881000Y-34036000D03*
X60071000Y-34036000D03*
X83185000Y-57404000D03*
X79375000Y-57404000D03*
X83185000Y-53340000D03*
X79375000Y-53340000D03*
X44577000Y-38100000D03*
X40767000Y-38100000D03*
X44577000Y-34036000D03*
X40767000Y-34036000D03*
X83185000Y-76962000D03*
X79375000Y-76962000D03*
X83185000Y-72898000D03*
X79375000Y-72898000D03*
X73533000Y-57404000D03*
X69723000Y-57404000D03*
X73533000Y-53340000D03*
X69723000Y-53340000D03*
X73533000Y-71882000D03*
X69723000Y-71882000D03*
X73533000Y-67818000D03*
X69723000Y-67818000D03*
D12*
X61976000Y-50292000D03*
D13*
X61976000Y-50292000D03*
X61214000Y-49530000D03*
X62738000Y-49530000D03*
X61214000Y-51054000D03*
X62738000Y-51054000D03*
D14*
X78232000Y-29908500D03*
X78232000Y-28003500D03*
D15*
X73596500Y-30988000D03*
X71691500Y-30988000D03*
D16*
X28448000Y-55554880D03*
X28448000Y-53157120D03*
X76962000Y-55554880D03*
X76962000Y-53157120D03*
X76962000Y-65206880D03*
X76962000Y-62809120D03*
X76962000Y-45902880D03*
X76962000Y-43505120D03*
X76962000Y-36250880D03*
X76962000Y-33853120D03*
X96266000Y-36250880D03*
X96266000Y-33853120D03*
X96266000Y-45902880D03*
X96266000Y-43505120D03*
X96012000Y-65206880D03*
X96012000Y-62809120D03*
X96266000Y-55554880D03*
X96266000Y-53157120D03*
X96012000Y-74858880D03*
X96012000Y-72461120D03*
X86360000Y-74858880D03*
X86360000Y-72461120D03*
X86614000Y-55554880D03*
X86614000Y-53157120D03*
X86360000Y-65206880D03*
X86360000Y-62809120D03*
X86614000Y-45902880D03*
X86614000Y-43505120D03*
X86614000Y-36250880D03*
X86614000Y-33853120D03*
X47752000Y-36250880D03*
X47752000Y-33853120D03*
X47752000Y-45902880D03*
X47752000Y-43505120D03*
X76708000Y-74858880D03*
X76708000Y-72461120D03*
X67310000Y-55554880D03*
X67310000Y-53157120D03*
X67310000Y-64841120D03*
X67310000Y-67238880D03*
X67310000Y-45902880D03*
X67310000Y-43505120D03*
X67183000Y-36250880D03*
X67183000Y-33853120D03*
X115570000Y-36250880D03*
X115570000Y-33853120D03*
X115570000Y-45902880D03*
X115570000Y-43505120D03*
X115570000Y-65206880D03*
X115570000Y-62809120D03*
X115570000Y-55554880D03*
X115570000Y-53157120D03*
X115316000Y-74858880D03*
X115316000Y-72461120D03*
X105664000Y-74858880D03*
X105664000Y-72461120D03*
X105918000Y-55554880D03*
X105918000Y-53157120D03*
X105664000Y-65206880D03*
X105664000Y-62809120D03*
X105918000Y-45902880D03*
X105918000Y-43505120D03*
X105918000Y-36250880D03*
X105918000Y-33853120D03*
X38100000Y-45902880D03*
X38100000Y-43505120D03*
X38100000Y-36250880D03*
X38100000Y-33853120D03*
X38100000Y-65206880D03*
X38100000Y-62809120D03*
X57404000Y-36250880D03*
X57404000Y-33853120D03*
X38100000Y-55554880D03*
X38100000Y-53157120D03*
X57404000Y-45902880D03*
X57404000Y-43505120D03*
X38100000Y-74858880D03*
X38100000Y-72461120D03*
X57404000Y-65206880D03*
X57404000Y-62809120D03*
X57404000Y-55554880D03*
X57404000Y-53157120D03*
X57404000Y-74858880D03*
X57404000Y-72461120D03*
X28448000Y-74858880D03*
X28448000Y-72461120D03*
X28448000Y-45902880D03*
X28448000Y-43505120D03*
X47752000Y-74858880D03*
X47752000Y-72461120D03*
X47752000Y-65206880D03*
X47752000Y-62809120D03*
X28448000Y-65206880D03*
X28448000Y-62809120D03*
X47752000Y-55554880D03*
X47752000Y-53157120D03*
X28448000Y-36250880D03*
X28448000Y-33853120D03*
D17*
X29210000Y-27940000D03*
X120650000Y-27940000D03*
X120650000Y-82550000D03*
X29210000Y-82550000D03*
D18*
X68580000Y-29210000D03*
D19*
X66040000Y-29210000D03*
X63500000Y-29210000D03*
X60960000Y-29210000D03*
X58420000Y-29210000D03*
X55880000Y-29210000D03*
D20*
X55245000Y-31750000D03*
X35052000Y-49022000D03*
X44704000Y-50292000D03*
X54356000Y-51308000D03*
D21*
X62230000Y-72898000D03*
X73660000Y-73660000D03*
X110236000Y-72898000D03*
X85852000Y-67056000D03*
X81280000Y-65278000D03*
D20*
X66294000Y-49530000D03*
X68834000Y-45974000D03*
D21*
X65532000Y-36322000D03*
D20*
X35814000Y-79756000D03*
D21*
X73660000Y-26924000D03*
X51054000Y-27432000D03*
X114808000Y-26924000D03*
X113030000Y-79756000D03*
X81534000Y-73152000D03*
X91186000Y-72898000D03*
X100584000Y-72898000D03*
X121920000Y-74930000D03*
D22*
X119816880Y-74858880D02*
X119888000Y-74787760D01*
D23*
X68580000Y-31115000D02*
X68580000Y-29210000D01*
X67945000Y-31750000D02*
X55245000Y-31750000D01*
X68580000Y-31115000D02*
X67945000Y-31750000D01*
X31069280Y-43794680D02*
X30779720Y-43505120D01*
D24*
X31069280Y-73004680D02*
X30525720Y-72461120D01*
D23*
X31069280Y-53446680D02*
X30779720Y-53157120D01*
D25*
X31069280Y-63098680D02*
X30779720Y-62809120D01*
D22*
X35052000Y-49022000D02*
X34970720Y-49022000D01*
D25*
X31069280Y-34142680D02*
X30779720Y-33853120D01*
D23*
X40721280Y-53446680D02*
X40431720Y-53157120D01*
D24*
X40721280Y-73004680D02*
X40177720Y-72461120D01*
D23*
X40721280Y-34142680D02*
X40431720Y-33853120D01*
X40721280Y-43794680D02*
X40431720Y-43505120D01*
X40721280Y-63098680D02*
X40431720Y-62809120D01*
D26*
X44704000Y-50292000D02*
X44622720Y-50292000D01*
D23*
X50373280Y-34142680D02*
X50083720Y-33853120D01*
X50373280Y-43794680D02*
X50083720Y-43505120D01*
X50373280Y-63098680D02*
X50083720Y-62809120D01*
X50373280Y-53446680D02*
X50083720Y-53157120D01*
D24*
X50373280Y-73004680D02*
X49829720Y-72461120D01*
D22*
X54102000Y-50546000D02*
X54274720Y-50546000D01*
D24*
X54274720Y-51308000D02*
X54274720Y-50546000D01*
D27*
X54356000Y-51308000D02*
X54274720Y-51308000D01*
D24*
X54274720Y-50546000D02*
X54274720Y-49022000D01*
X60025280Y-73004680D02*
X59481720Y-72461120D01*
D23*
X60025280Y-53446680D02*
X59735720Y-53157120D01*
X60025280Y-63098680D02*
X59735720Y-62809120D01*
X60025280Y-43794680D02*
X59735720Y-43505120D01*
X60025280Y-34142680D02*
X59735720Y-33853120D01*
X69677280Y-67924680D02*
X68991480Y-67238880D01*
X69677280Y-53446680D02*
X69387720Y-53157120D01*
X69677280Y-34142680D02*
X69387720Y-33853120D01*
X69677280Y-43794680D02*
X69387720Y-43505120D01*
D22*
X73660000Y-73660000D02*
X73578720Y-73578720D01*
D23*
X79329280Y-34142680D02*
X79039720Y-33853120D01*
X79329280Y-43794680D02*
X79039720Y-43505120D01*
D24*
X79329280Y-73004680D02*
X78785720Y-72461120D01*
D23*
X79329280Y-53446680D02*
X79039720Y-53157120D01*
X79329280Y-63098680D02*
X79039720Y-62809120D01*
X88981280Y-63098680D02*
X88691720Y-62809120D01*
X88981280Y-43794680D02*
X88691720Y-43505120D01*
X88981280Y-34142680D02*
X88691720Y-33853120D01*
D24*
X88981280Y-73004680D02*
X88437720Y-72461120D01*
D23*
X88981280Y-53446680D02*
X88691720Y-53157120D01*
X98633280Y-34142680D02*
X98343720Y-33853120D01*
X98633280Y-63098680D02*
X98343720Y-62809120D01*
X98633280Y-53446680D02*
X98343720Y-53157120D01*
D24*
X98633280Y-73004680D02*
X98089720Y-72461120D01*
D23*
X98633280Y-43794680D02*
X98343720Y-43505120D01*
X108285280Y-53446680D02*
X107995720Y-53157120D01*
X108285280Y-63098680D02*
X107995720Y-62809120D01*
X108285280Y-43794680D02*
X107995720Y-43505120D01*
X108285280Y-34142680D02*
X107995720Y-33853120D01*
D24*
X108285280Y-73004680D02*
X107741720Y-72461120D01*
D22*
X110236000Y-72898000D02*
X110342680Y-73004680D01*
D23*
X117937280Y-43794680D02*
X117647720Y-43505120D01*
X117937280Y-34142680D02*
X117647720Y-33853120D01*
D24*
X117937280Y-73004680D02*
X117393720Y-72461120D01*
D23*
X117937280Y-53446680D02*
X117647720Y-53157120D01*
X117937280Y-63098680D02*
X117647720Y-62809120D01*
X74930000Y-74930000D02*
X67818000Y-74930000D01*
X57475120Y-74930000D02*
X66802000Y-74930000D01*
D24*
X48006000Y-74858880D02*
X38354000Y-74858880D01*
D23*
X76636880Y-74930000D02*
X76708000Y-74858880D01*
X57404000Y-74858880D02*
X57475120Y-74930000D01*
X84836000Y-74858880D02*
X76708000Y-74858880D01*
D24*
X86360000Y-74858880D02*
X84836000Y-74858880D01*
X105664000Y-74858880D02*
X96012000Y-74858880D01*
X115316000Y-74858880D02*
X105664000Y-74858880D01*
X57658000Y-74858880D02*
X48006000Y-74858880D01*
X38354000Y-74858880D02*
X28448000Y-74858880D01*
X96012000Y-74858880D02*
X86360000Y-74858880D01*
D23*
X66802000Y-74930000D02*
X67818000Y-74930000D01*
X74930000Y-74930000D02*
X76636880Y-74930000D01*
X84836000Y-68072000D02*
X85852000Y-67056000D01*
X84836000Y-74858880D02*
X84836000Y-68072000D01*
X67310000Y-64841120D02*
X69778880Y-64841120D01*
X76962000Y-67818000D02*
X76962000Y-65206880D01*
X74930000Y-69850000D02*
X76962000Y-67818000D01*
X71120000Y-69850000D02*
X74930000Y-69850000D01*
X70977760Y-69707760D02*
X71120000Y-69850000D01*
X70977760Y-66040000D02*
X70977760Y-69707760D01*
X69778880Y-64841120D02*
X70977760Y-66040000D01*
D22*
X81280000Y-65278000D02*
X81280000Y-65206880D01*
D24*
X115570000Y-65206880D02*
X105664000Y-65206880D01*
D23*
X57769760Y-64841120D02*
X67310000Y-64841120D01*
D24*
X105664000Y-65206880D02*
X96012000Y-65206880D01*
D23*
X33020000Y-65206880D02*
X32512000Y-65206880D01*
D24*
X96012000Y-65206880D02*
X86360000Y-65206880D01*
D23*
X67310000Y-64841120D02*
X67381120Y-64770000D01*
X57404000Y-65206880D02*
X57769760Y-64841120D01*
X48006000Y-65206880D02*
X57658000Y-65206880D01*
X32512000Y-65206880D02*
X28448000Y-65206880D01*
D22*
X32512000Y-65278000D02*
X32512000Y-65206880D01*
D23*
X48006000Y-65206880D02*
X38354000Y-65206880D01*
D24*
X81280000Y-65206880D02*
X76962000Y-65206880D01*
X86360000Y-65206880D02*
X81280000Y-65206880D01*
D23*
X38354000Y-65206880D02*
X33020000Y-65206880D01*
X66040000Y-49530000D02*
X65532000Y-50038000D01*
X65532000Y-50038000D02*
X65532000Y-55554880D01*
X38354000Y-55554880D02*
X48006000Y-55554880D01*
D22*
X66294000Y-49530000D02*
X66040000Y-49530000D01*
D23*
X38354000Y-55554880D02*
X33020000Y-55554880D01*
D24*
X66040000Y-55554880D02*
X67310000Y-55554880D01*
X65532000Y-55554880D02*
X66040000Y-55554880D01*
X57658000Y-55554880D02*
X65532000Y-55554880D01*
D23*
X33020000Y-55554880D02*
X28448000Y-55554880D01*
D24*
X48006000Y-55554880D02*
X57658000Y-55554880D01*
X86614000Y-55554880D02*
X96266000Y-55554880D01*
X76962000Y-55554880D02*
X86614000Y-55554880D01*
X67310000Y-55554880D02*
X76962000Y-55554880D01*
X96266000Y-55554880D02*
X105918000Y-55554880D01*
X105918000Y-55554880D02*
X115570000Y-55554880D01*
X86614000Y-45902880D02*
X76962000Y-45902880D01*
D22*
X65024000Y-45974000D02*
X65024000Y-45902880D01*
D25*
X68834000Y-45974000D02*
X68834000Y-45902880D01*
D23*
X96266000Y-45902880D02*
X86614000Y-45902880D01*
X32766000Y-45902880D02*
X38354000Y-45902880D01*
D24*
X105918000Y-45902880D02*
X96266000Y-45902880D01*
X28448000Y-45902880D02*
X32766000Y-45902880D01*
X115570000Y-45902880D02*
X105918000Y-45902880D01*
X48006000Y-45902880D02*
X57658000Y-45902880D01*
X38354000Y-45902880D02*
X48006000Y-45902880D01*
X65024000Y-45902880D02*
X57658000Y-45902880D01*
X67310000Y-45902880D02*
X65024000Y-45902880D01*
X68834000Y-45902880D02*
X67310000Y-45902880D01*
X76962000Y-45902880D02*
X68834000Y-45902880D01*
X76835000Y-36250880D02*
X86487000Y-36250880D01*
D25*
X65532000Y-36322000D02*
X65532000Y-36250880D01*
D24*
X105791000Y-36250880D02*
X115443000Y-36250880D01*
X67183000Y-36250880D02*
X76835000Y-36250880D01*
D23*
X38227000Y-36250880D02*
X47879000Y-36250880D01*
X47879000Y-36250880D02*
X57531000Y-36250880D01*
D24*
X86487000Y-36250880D02*
X96139000Y-36250880D01*
X96139000Y-36250880D02*
X105791000Y-36250880D01*
X65532000Y-36250880D02*
X67183000Y-36250880D01*
X64770000Y-36250880D02*
X65532000Y-36250880D01*
X57531000Y-36250880D02*
X64770000Y-36250880D01*
D23*
X33020000Y-36250880D02*
X38227000Y-36250880D01*
D25*
X28448000Y-36250880D02*
X33020000Y-36250880D01*
D23*
X113030000Y-79756000D02*
X35814000Y-79756000D01*
D25*
X30779720Y-33853120D02*
X28575000Y-33853120D01*
D23*
X34970720Y-43794680D02*
X34970720Y-37993320D01*
D24*
X34970720Y-49022000D02*
X34970720Y-47645320D01*
X30779720Y-43505120D02*
X28448000Y-43505120D01*
X34970720Y-53446680D02*
X34970720Y-49022000D01*
D23*
X34970720Y-63098680D02*
X34970720Y-57297320D01*
D24*
X30779720Y-53157120D02*
X28448000Y-53157120D01*
D23*
X34970720Y-69850000D02*
X34970720Y-66949320D01*
D24*
X30779720Y-62809120D02*
X28448000Y-62809120D01*
D23*
X34970720Y-72750680D02*
X34970720Y-69850000D01*
D24*
X30525720Y-72461120D02*
X28448000Y-72461120D01*
X44622720Y-43794680D02*
X44622720Y-37993320D01*
X40431720Y-33853120D02*
X38227000Y-33853120D01*
D26*
X44622720Y-50292000D02*
X44622720Y-47645320D01*
D23*
X40431720Y-43505120D02*
X38354000Y-43505120D01*
D26*
X44622720Y-53446680D02*
X44622720Y-50292000D01*
D23*
X44622720Y-63098680D02*
X44622720Y-57297320D01*
D24*
X40431720Y-53157120D02*
X38354000Y-53157120D01*
X44622720Y-68580000D02*
X44622720Y-66949320D01*
X40431720Y-62809120D02*
X38354000Y-62809120D01*
X44622720Y-69088000D02*
X44622720Y-68580000D01*
D22*
X44704000Y-68580000D02*
X44622720Y-68580000D01*
D24*
X44622720Y-72750680D02*
X44622720Y-69088000D01*
X40177720Y-72461120D02*
X38100000Y-72461120D01*
D23*
X54274720Y-43794680D02*
X54274720Y-37993320D01*
X50083720Y-33853120D02*
X47879000Y-33853120D01*
D24*
X54274720Y-49022000D02*
X54274720Y-47645320D01*
X50083720Y-43505120D02*
X48006000Y-43505120D01*
X54274720Y-53446680D02*
X54274720Y-51308000D01*
D23*
X54274720Y-63098680D02*
X54274720Y-57297320D01*
D24*
X50083720Y-53157120D02*
X48006000Y-53157120D01*
X54274720Y-68326000D02*
X54274720Y-66949320D01*
X50083720Y-62809120D02*
X48006000Y-62809120D01*
D22*
X54356000Y-68326000D02*
X54274720Y-68326000D01*
D24*
X54274720Y-68580000D02*
X54274720Y-68326000D01*
X54274720Y-72750680D02*
X54274720Y-68580000D01*
X49829720Y-72461120D02*
X47752000Y-72461120D01*
X63926720Y-43794680D02*
X63926720Y-37993320D01*
X59735720Y-33853120D02*
X57531000Y-33853120D01*
X63926720Y-53446680D02*
X63926720Y-47645320D01*
X59735720Y-43505120D02*
X57658000Y-43505120D01*
D23*
X63926720Y-58928000D02*
X63926720Y-57297320D01*
D24*
X59735720Y-53157120D02*
X57658000Y-53157120D01*
D23*
X63926720Y-59690000D02*
X63926720Y-58928000D01*
X63926720Y-61468000D02*
X63926720Y-59690000D01*
X63926720Y-63098680D02*
X63926720Y-61468000D01*
D24*
X63926720Y-73004680D02*
X63926720Y-66949320D01*
X59735720Y-62809120D02*
X57658000Y-62809120D01*
D25*
X62230000Y-72898000D02*
X63820040Y-72898000D01*
D22*
X63926720Y-73004680D02*
X63820040Y-72898000D01*
D24*
X59481720Y-72461120D02*
X57404000Y-72461120D01*
X73578720Y-43794680D02*
X73578720Y-37993320D01*
D23*
X69387720Y-33853120D02*
X67183000Y-33853120D01*
D24*
X73578720Y-53446680D02*
X73578720Y-47645320D01*
D23*
X69387720Y-43505120D02*
X67310000Y-43505120D01*
D24*
X73578720Y-59436000D02*
X73578720Y-57297320D01*
X69387720Y-53157120D02*
X67310000Y-53157120D01*
X73578720Y-62992000D02*
X73578720Y-59436000D01*
X73578720Y-66040000D02*
X73578720Y-62992000D01*
X73578720Y-67924680D02*
X73578720Y-66040000D01*
D22*
X73578720Y-73578720D02*
X73578720Y-71775320D01*
D23*
X68991480Y-67238880D02*
X67310000Y-67238880D01*
D24*
X83230720Y-43794680D02*
X83230720Y-37993320D01*
X79039720Y-33853120D02*
X76835000Y-33853120D01*
D23*
X83230720Y-53446680D02*
X83230720Y-47645320D01*
D24*
X79039720Y-43505120D02*
X76962000Y-43505120D01*
X83230720Y-58674000D02*
X83230720Y-57297320D01*
X79039720Y-53157120D02*
X76962000Y-53157120D01*
X83230720Y-60706000D02*
X83230720Y-58674000D01*
D23*
X83230720Y-63098680D02*
X83230720Y-60706000D01*
X83230720Y-73004680D02*
X83230720Y-66949320D01*
X79039720Y-62809120D02*
X76962000Y-62809120D01*
D25*
X81681320Y-73004680D02*
X83230720Y-73004680D01*
X81534000Y-73152000D02*
X81681320Y-73004680D01*
D24*
X78785720Y-72461120D02*
X76708000Y-72461120D01*
D23*
X92882720Y-43794680D02*
X92882720Y-37993320D01*
D24*
X88691720Y-33853120D02*
X86487000Y-33853120D01*
D23*
X92882720Y-53446680D02*
X92882720Y-47645320D01*
X88691720Y-43505120D02*
X86614000Y-43505120D01*
D24*
X92882720Y-60706000D02*
X92882720Y-57297320D01*
X88691720Y-53157120D02*
X86614000Y-53157120D01*
D23*
X92882720Y-63098680D02*
X92882720Y-60706000D01*
X92882720Y-72750680D02*
X92882720Y-66949320D01*
X88691720Y-62809120D02*
X86360000Y-62809120D01*
D22*
X91186000Y-72898000D02*
X91292680Y-73004680D01*
D25*
X91292680Y-73004680D02*
X92882720Y-73004680D01*
D24*
X88437720Y-72461120D02*
X86360000Y-72461120D01*
X102534720Y-43794680D02*
X102534720Y-37993320D01*
X98343720Y-33853120D02*
X96139000Y-33853120D01*
X102534720Y-53446680D02*
X102534720Y-47645320D01*
D23*
X98343720Y-43505120D02*
X96266000Y-43505120D01*
X102534720Y-60706000D02*
X102534720Y-57297320D01*
D24*
X98343720Y-53157120D02*
X96266000Y-53157120D01*
X102534720Y-63098680D02*
X102534720Y-60706000D01*
X102534720Y-72750680D02*
X102534720Y-66949320D01*
D23*
X98343720Y-62809120D02*
X96012000Y-62809120D01*
D22*
X100584000Y-72898000D02*
X100690680Y-73004680D01*
D25*
X100690680Y-73004680D02*
X102534720Y-73004680D01*
D24*
X98089720Y-72461120D02*
X96012000Y-72461120D01*
X112186720Y-43794680D02*
X112186720Y-37993320D01*
X107995720Y-33853120D02*
X105791000Y-33853120D01*
X112186720Y-53446680D02*
X112186720Y-47645320D01*
X107995720Y-43505120D02*
X105918000Y-43505120D01*
D22*
X111399320Y-53446680D02*
X112186720Y-53446680D01*
D24*
X112186720Y-60706000D02*
X112186720Y-57297320D01*
X107995720Y-53157120D02*
X105918000Y-53157120D01*
D23*
X112186720Y-63098680D02*
X112186720Y-60706000D01*
D24*
X112186720Y-72750680D02*
X112186720Y-66949320D01*
X107995720Y-62809120D02*
X105664000Y-62809120D01*
D25*
X112186720Y-73004680D02*
X110342680Y-73004680D01*
D24*
X107741720Y-72461120D02*
X105664000Y-72461120D01*
X121838720Y-43794680D02*
X121838720Y-37993320D01*
X117647720Y-33853120D02*
X115443000Y-33853120D01*
X121838720Y-53446680D02*
X121838720Y-47645320D01*
X117647720Y-43505120D02*
X115570000Y-43505120D01*
X121838720Y-63098680D02*
X121838720Y-57297320D01*
D23*
X117647720Y-53157120D02*
X115570000Y-53157120D01*
D24*
X121838720Y-72750680D02*
X121838720Y-66949320D01*
X117647720Y-62809120D02*
X115570000Y-62809120D01*
D22*
X121920000Y-74930000D02*
X121920000Y-73085960D01*
X121920000Y-73085960D02*
X121838720Y-73004680D01*
D24*
X117393720Y-72461120D02*
X115316000Y-72461120D01*
D22*
G36*
X33601228Y-78466153D02*
X33770988Y-78582145D01*
X33972500Y-78622952D01*
X35877500Y-78622952D01*
X36065753Y-78587530D01*
X36238653Y-78476272D01*
X36318781Y-78359000D01*
X39374277Y-78359000D01*
X39443228Y-78466153D01*
X39612988Y-78582145D01*
X39814500Y-78622952D01*
X41719500Y-78622952D01*
X41907753Y-78587530D01*
X42080653Y-78476272D01*
X42160781Y-78359000D01*
X43184277Y-78359000D01*
X43253228Y-78466153D01*
X43422988Y-78582145D01*
X43624500Y-78622952D01*
X45529500Y-78622952D01*
X45717753Y-78587530D01*
X45890653Y-78476272D01*
X45970781Y-78359000D01*
X49026277Y-78359000D01*
X49095228Y-78466153D01*
X49264988Y-78582145D01*
X49466500Y-78622952D01*
X51371500Y-78622952D01*
X51559753Y-78587530D01*
X51732653Y-78476272D01*
X51812781Y-78359000D01*
X52836277Y-78359000D01*
X52905228Y-78466153D01*
X53074988Y-78582145D01*
X53276500Y-78622952D01*
X55181500Y-78622952D01*
X55369753Y-78587530D01*
X55542653Y-78476272D01*
X55622781Y-78359000D01*
X58678277Y-78359000D01*
X58747228Y-78466153D01*
X58916988Y-78582145D01*
X59118500Y-78622952D01*
X61023500Y-78622952D01*
X61211753Y-78587530D01*
X61384653Y-78476272D01*
X61464781Y-78359000D01*
X62488277Y-78359000D01*
X62557228Y-78466153D01*
X62726988Y-78582145D01*
X62928500Y-78622952D01*
X64833500Y-78622952D01*
X65021753Y-78587530D01*
X65194653Y-78476272D01*
X65274781Y-78359000D01*
X77982277Y-78359000D01*
X78051228Y-78466153D01*
X78220988Y-78582145D01*
X78422500Y-78622952D01*
X80327500Y-78622952D01*
X80515753Y-78587530D01*
X80688653Y-78476272D01*
X80768781Y-78359000D01*
X81792277Y-78359000D01*
X81861228Y-78466153D01*
X82030988Y-78582145D01*
X82232500Y-78622952D01*
X84137500Y-78622952D01*
X84325753Y-78587530D01*
X84498653Y-78476272D01*
X84578781Y-78359000D01*
X87634277Y-78359000D01*
X87703228Y-78466153D01*
X87872988Y-78582145D01*
X88074500Y-78622952D01*
X89979500Y-78622952D01*
X90167753Y-78587530D01*
X90340653Y-78476272D01*
X90420781Y-78359000D01*
X91444277Y-78359000D01*
X91513228Y-78466153D01*
X91682988Y-78582145D01*
X91884500Y-78622952D01*
X93789500Y-78622952D01*
X93977753Y-78587530D01*
X94150653Y-78476272D01*
X94230781Y-78359000D01*
X97286277Y-78359000D01*
X97355228Y-78466153D01*
X97524988Y-78582145D01*
X97726500Y-78622952D01*
X99631500Y-78622952D01*
X99819753Y-78587530D01*
X99992653Y-78476272D01*
X100072781Y-78359000D01*
X101096277Y-78359000D01*
X101165228Y-78466153D01*
X101334988Y-78582145D01*
X101536500Y-78622952D01*
X103441500Y-78622952D01*
X103629753Y-78587530D01*
X103802653Y-78476272D01*
X103882781Y-78359000D01*
X106938277Y-78359000D01*
X107007228Y-78466153D01*
X107176988Y-78582145D01*
X107378500Y-78622952D01*
X109283500Y-78622952D01*
X109471753Y-78587530D01*
X109644653Y-78476272D01*
X109724781Y-78359000D01*
X110748277Y-78359000D01*
X110817228Y-78466153D01*
X110986988Y-78582145D01*
X111188500Y-78622952D01*
X113093500Y-78622952D01*
X113281753Y-78587530D01*
X113454653Y-78476272D01*
X113534781Y-78359000D01*
X116205000Y-78359000D01*
X116205000Y-81915000D01*
X32131000Y-81915000D01*
X32131000Y-78611004D01*
X32255753Y-78587530D01*
X32428653Y-78476272D01*
X32508781Y-78359000D01*
X33532277Y-78359000D01*
X33601228Y-78466153D01*
X33601228Y-78466153D01*
G37*
X33601228Y-78466153D02*
X33770988Y-78582145D01*
X33972500Y-78622952D01*
X35877500Y-78622952D01*
X36065753Y-78587530D01*
X36238653Y-78476272D01*
X36318781Y-78359000D01*
X39374277Y-78359000D01*
X39443228Y-78466153D01*
X39612988Y-78582145D01*
X39814500Y-78622952D01*
X41719500Y-78622952D01*
X41907753Y-78587530D01*
X42080653Y-78476272D01*
X42160781Y-78359000D01*
X43184277Y-78359000D01*
X43253228Y-78466153D01*
X43422988Y-78582145D01*
X43624500Y-78622952D01*
X45529500Y-78622952D01*
X45717753Y-78587530D01*
X45890653Y-78476272D01*
X45970781Y-78359000D01*
X49026277Y-78359000D01*
X49095228Y-78466153D01*
X49264988Y-78582145D01*
X49466500Y-78622952D01*
X51371500Y-78622952D01*
X51559753Y-78587530D01*
X51732653Y-78476272D01*
X51812781Y-78359000D01*
X52836277Y-78359000D01*
X52905228Y-78466153D01*
X53074988Y-78582145D01*
X53276500Y-78622952D01*
X55181500Y-78622952D01*
X55369753Y-78587530D01*
X55542653Y-78476272D01*
X55622781Y-78359000D01*
X58678277Y-78359000D01*
X58747228Y-78466153D01*
X58916988Y-78582145D01*
X59118500Y-78622952D01*
X61023500Y-78622952D01*
X61211753Y-78587530D01*
X61384653Y-78476272D01*
X61464781Y-78359000D01*
X62488277Y-78359000D01*
X62557228Y-78466153D01*
X62726988Y-78582145D01*
X62928500Y-78622952D01*
X64833500Y-78622952D01*
X65021753Y-78587530D01*
X65194653Y-78476272D01*
X65274781Y-78359000D01*
X77982277Y-78359000D01*
X78051228Y-78466153D01*
X78220988Y-78582145D01*
X78422500Y-78622952D01*
X80327500Y-78622952D01*
X80515753Y-78587530D01*
X80688653Y-78476272D01*
X80768781Y-78359000D01*
X81792277Y-78359000D01*
X81861228Y-78466153D01*
X82030988Y-78582145D01*
X82232500Y-78622952D01*
X84137500Y-78622952D01*
X84325753Y-78587530D01*
X84498653Y-78476272D01*
X84578781Y-78359000D01*
X87634277Y-78359000D01*
X87703228Y-78466153D01*
X87872988Y-78582145D01*
X88074500Y-78622952D01*
X89979500Y-78622952D01*
X90167753Y-78587530D01*
X90340653Y-78476272D01*
X90420781Y-78359000D01*
X91444277Y-78359000D01*
X91513228Y-78466153D01*
X91682988Y-78582145D01*
X91884500Y-78622952D01*
X93789500Y-78622952D01*
X93977753Y-78587530D01*
X94150653Y-78476272D01*
X94230781Y-78359000D01*
X97286277Y-78359000D01*
X97355228Y-78466153D01*
X97524988Y-78582145D01*
X97726500Y-78622952D01*
X99631500Y-78622952D01*
X99819753Y-78587530D01*
X99992653Y-78476272D01*
X100072781Y-78359000D01*
X101096277Y-78359000D01*
X101165228Y-78466153D01*
X101334988Y-78582145D01*
X101536500Y-78622952D01*
X103441500Y-78622952D01*
X103629753Y-78587530D01*
X103802653Y-78476272D01*
X103882781Y-78359000D01*
X106938277Y-78359000D01*
X107007228Y-78466153D01*
X107176988Y-78582145D01*
X107378500Y-78622952D01*
X109283500Y-78622952D01*
X109471753Y-78587530D01*
X109644653Y-78476272D01*
X109724781Y-78359000D01*
X110748277Y-78359000D01*
X110817228Y-78466153D01*
X110986988Y-78582145D01*
X111188500Y-78622952D01*
X113093500Y-78622952D01*
X113281753Y-78587530D01*
X113454653Y-78476272D01*
X113534781Y-78359000D01*
X116205000Y-78359000D01*
X116205000Y-81915000D01*
X32131000Y-81915000D01*
X32131000Y-78611004D01*
X32255753Y-78587530D01*
X32428653Y-78476272D01*
X32508781Y-78359000D01*
X33532277Y-78359000D01*
X33601228Y-78466153D01*
G36*
X117221000Y-31623000D02*
X74558952Y-31623000D01*
X74558952Y-30289500D01*
X74523530Y-30101247D01*
X74412272Y-29928347D01*
X74242512Y-29812355D01*
X74041000Y-29771548D01*
X73152000Y-29771548D01*
X72963747Y-29806970D01*
X72790847Y-29918228D01*
X72674855Y-30087988D01*
X72644365Y-30238551D01*
X72618530Y-30101247D01*
X72507272Y-29928347D01*
X72337512Y-29812355D01*
X72136000Y-29771548D01*
X72009000Y-29771548D01*
X72009000Y-27559000D01*
X77015548Y-27559000D01*
X77015548Y-28448000D01*
X77050970Y-28636253D01*
X77162228Y-28809153D01*
X77331988Y-28925145D01*
X77482551Y-28955635D01*
X77345247Y-28981470D01*
X77172347Y-29092728D01*
X77056355Y-29262488D01*
X77015548Y-29464000D01*
X77015548Y-30353000D01*
X77050970Y-30541253D01*
X77162228Y-30714153D01*
X77331988Y-30830145D01*
X77533500Y-30870952D01*
X78930500Y-30870952D01*
X79118753Y-30835530D01*
X79291653Y-30724272D01*
X79407645Y-30554512D01*
X79448452Y-30353000D01*
X79448452Y-29464000D01*
X79413030Y-29275747D01*
X79301772Y-29102847D01*
X79132012Y-28986855D01*
X78981449Y-28956365D01*
X79118753Y-28930530D01*
X79291653Y-28819272D01*
X79407645Y-28649512D01*
X79448452Y-28448000D01*
X79448452Y-27559000D01*
X79413030Y-27370747D01*
X79301772Y-27197847D01*
X79132012Y-27081855D01*
X78930500Y-27041048D01*
X77533500Y-27041048D01*
X77345247Y-27076470D01*
X77172347Y-27187728D01*
X77056355Y-27357488D01*
X77015548Y-27559000D01*
X72009000Y-27559000D01*
X72009000Y-26035000D01*
X117221000Y-26035000D01*
X117221000Y-31623000D01*
X117221000Y-31623000D01*
G37*
X117221000Y-31623000D02*
X74558952Y-31623000D01*
X74558952Y-30289500D01*
X74523530Y-30101247D01*
X74412272Y-29928347D01*
X74242512Y-29812355D01*
X74041000Y-29771548D01*
X73152000Y-29771548D01*
X72963747Y-29806970D01*
X72790847Y-29918228D01*
X72674855Y-30087988D01*
X72644365Y-30238551D01*
X72618530Y-30101247D01*
X72507272Y-29928347D01*
X72337512Y-29812355D01*
X72136000Y-29771548D01*
X72009000Y-29771548D01*
X72009000Y-27559000D01*
X77015548Y-27559000D01*
X77015548Y-28448000D01*
X77050970Y-28636253D01*
X77162228Y-28809153D01*
X77331988Y-28925145D01*
X77482551Y-28955635D01*
X77345247Y-28981470D01*
X77172347Y-29092728D01*
X77056355Y-29262488D01*
X77015548Y-29464000D01*
X77015548Y-30353000D01*
X77050970Y-30541253D01*
X77162228Y-30714153D01*
X77331988Y-30830145D01*
X77533500Y-30870952D01*
X78930500Y-30870952D01*
X79118753Y-30835530D01*
X79291653Y-30724272D01*
X79407645Y-30554512D01*
X79448452Y-30353000D01*
X79448452Y-29464000D01*
X79413030Y-29275747D01*
X79301772Y-29102847D01*
X79132012Y-28986855D01*
X78981449Y-28956365D01*
X79118753Y-28930530D01*
X79291653Y-28819272D01*
X79407645Y-28649512D01*
X79448452Y-28448000D01*
X79448452Y-27559000D01*
X79413030Y-27370747D01*
X79301772Y-27197847D01*
X79132012Y-27081855D01*
X78930500Y-27041048D01*
X77533500Y-27041048D01*
X77345247Y-27076470D01*
X77172347Y-27187728D01*
X77056355Y-27357488D01*
X77015548Y-27559000D01*
X72009000Y-27559000D01*
X72009000Y-26035000D01*
X117221000Y-26035000D01*
X117221000Y-31623000D01*
G36*
X54229000Y-31877000D02*
X32639000Y-31877000D01*
X32639000Y-26035000D01*
X54229000Y-26035000D01*
X54229000Y-31877000D01*
X54229000Y-31877000D01*
G37*
X54229000Y-31877000D02*
X32639000Y-31877000D01*
X32639000Y-26035000D01*
X54229000Y-26035000D01*
X54229000Y-31877000D01*
M02*
