G04 #@! TF.FileFunction,Soldermask,Top*
%FSLAX46Y46*%
G04 Gerber Fmt 4.6, Leading zero omitted, Abs format (unit mm)*
G04 Created by KiCad (PCBNEW (2015-08-05 BZR 6055, Git fa29c62)-product) date 18/08/2015 14:45:33*
%MOMM*%
G01*
G04 APERTURE LIST*
%ADD10C,0.152400*%
%ADD11R,1.498600X1.879600*%
%ADD12R,1.397000X1.778000*%
%ADD13C,1.041400*%
%ADD14R,0.889000X0.381000*%
%ADD15R,0.381000X0.889000*%
%ADD16R,0.591820X0.993140*%
%ADD17C,2.593340*%
%ADD18R,1.397000X1.397000*%
%ADD19C,1.524000*%
G04 APERTURE END LIST*
D10*
D11*
X34925000Y-38100000D03*
D12*
X31115000Y-38100000D03*
D11*
X34925000Y-34036000D03*
D12*
X31115000Y-34036000D03*
D11*
X102489000Y-47752000D03*
D12*
X98679000Y-47752000D03*
D11*
X102489000Y-43688000D03*
D12*
X98679000Y-43688000D03*
D11*
X34925000Y-76962000D03*
D12*
X31115000Y-76962000D03*
D11*
X34925000Y-72898000D03*
D12*
X31115000Y-72898000D03*
D11*
X73533000Y-47752000D03*
D12*
X69723000Y-47752000D03*
D11*
X73533000Y-43688000D03*
D12*
X69723000Y-43688000D03*
D11*
X44577000Y-47752000D03*
D12*
X40767000Y-47752000D03*
D11*
X44577000Y-43688000D03*
D12*
X40767000Y-43688000D03*
D11*
X44577000Y-67056000D03*
D12*
X40767000Y-67056000D03*
D11*
X44577000Y-62992000D03*
D12*
X40767000Y-62992000D03*
D11*
X73533000Y-38100000D03*
D12*
X69723000Y-38100000D03*
D11*
X73533000Y-34036000D03*
D12*
X69723000Y-34036000D03*
D11*
X121793000Y-38100000D03*
D12*
X117983000Y-38100000D03*
D11*
X121793000Y-34036000D03*
D12*
X117983000Y-34036000D03*
D11*
X34925000Y-47752000D03*
D12*
X31115000Y-47752000D03*
D11*
X34925000Y-43688000D03*
D12*
X31115000Y-43688000D03*
D11*
X34925000Y-67056000D03*
D12*
X31115000Y-67056000D03*
D11*
X34925000Y-62992000D03*
D12*
X31115000Y-62992000D03*
D11*
X121793000Y-47752000D03*
D12*
X117983000Y-47752000D03*
D11*
X121793000Y-43688000D03*
D12*
X117983000Y-43688000D03*
D11*
X121793000Y-67056000D03*
D12*
X117983000Y-67056000D03*
D11*
X121793000Y-62992000D03*
D12*
X117983000Y-62992000D03*
D11*
X44577000Y-57404000D03*
D12*
X40767000Y-57404000D03*
D11*
X44577000Y-53340000D03*
D12*
X40767000Y-53340000D03*
D11*
X112141000Y-38100000D03*
D12*
X108331000Y-38100000D03*
D11*
X112141000Y-34036000D03*
D12*
X108331000Y-34036000D03*
D11*
X121793000Y-57404000D03*
D12*
X117983000Y-57404000D03*
D11*
X121793000Y-53340000D03*
D12*
X117983000Y-53340000D03*
D11*
X44577000Y-76962000D03*
D12*
X40767000Y-76962000D03*
D11*
X44577000Y-72898000D03*
D12*
X40767000Y-72898000D03*
D11*
X121793000Y-76962000D03*
D12*
X117983000Y-76962000D03*
D11*
X121793000Y-72898000D03*
D12*
X117983000Y-72898000D03*
D11*
X112141000Y-76962000D03*
D12*
X108331000Y-76962000D03*
D11*
X112141000Y-72898000D03*
D12*
X108331000Y-72898000D03*
D11*
X112141000Y-57404000D03*
D12*
X108331000Y-57404000D03*
D11*
X112141000Y-53340000D03*
D12*
X108331000Y-53340000D03*
D11*
X112141000Y-47752000D03*
D12*
X108331000Y-47752000D03*
D11*
X112141000Y-43688000D03*
D12*
X108331000Y-43688000D03*
D11*
X34925000Y-57404000D03*
D12*
X31115000Y-57404000D03*
D11*
X34925000Y-53340000D03*
D12*
X31115000Y-53340000D03*
D11*
X112141000Y-67056000D03*
D12*
X108331000Y-67056000D03*
D11*
X112141000Y-62992000D03*
D12*
X108331000Y-62992000D03*
D11*
X54229000Y-47752000D03*
D12*
X50419000Y-47752000D03*
D11*
X54229000Y-43688000D03*
D12*
X50419000Y-43688000D03*
D11*
X54229000Y-67056000D03*
D12*
X50419000Y-67056000D03*
D11*
X54229000Y-62992000D03*
D12*
X50419000Y-62992000D03*
D11*
X54229000Y-38100000D03*
D12*
X50419000Y-38100000D03*
D11*
X54229000Y-34036000D03*
D12*
X50419000Y-34036000D03*
D11*
X92837000Y-38100000D03*
D12*
X89027000Y-38100000D03*
D11*
X92837000Y-34036000D03*
D12*
X89027000Y-34036000D03*
D11*
X54229000Y-57404000D03*
D12*
X50419000Y-57404000D03*
D11*
X54229000Y-53340000D03*
D12*
X50419000Y-53340000D03*
D11*
X92837000Y-47752000D03*
D12*
X89027000Y-47752000D03*
D11*
X92837000Y-43688000D03*
D12*
X89027000Y-43688000D03*
D11*
X92837000Y-67056000D03*
D12*
X89027000Y-67056000D03*
D11*
X92837000Y-62992000D03*
D12*
X89027000Y-62992000D03*
D11*
X54229000Y-76962000D03*
D12*
X50419000Y-76962000D03*
D11*
X54229000Y-72898000D03*
D12*
X50419000Y-72898000D03*
D11*
X92837000Y-57404000D03*
D12*
X89027000Y-57404000D03*
D11*
X92837000Y-53340000D03*
D12*
X89027000Y-53340000D03*
D11*
X63881000Y-76962000D03*
D12*
X60071000Y-76962000D03*
D11*
X63881000Y-72898000D03*
D12*
X60071000Y-72898000D03*
D11*
X92837000Y-76962000D03*
D12*
X89027000Y-76962000D03*
D11*
X92837000Y-72898000D03*
D12*
X89027000Y-72898000D03*
D11*
X102489000Y-76962000D03*
D12*
X98679000Y-76962000D03*
D11*
X102489000Y-72898000D03*
D12*
X98679000Y-72898000D03*
D11*
X102489000Y-57404000D03*
D12*
X98679000Y-57404000D03*
D11*
X102489000Y-53340000D03*
D12*
X98679000Y-53340000D03*
D11*
X63881000Y-57404000D03*
D12*
X60071000Y-57404000D03*
D11*
X63881000Y-53340000D03*
D12*
X60071000Y-53340000D03*
D11*
X102489000Y-67056000D03*
D12*
X98679000Y-67056000D03*
D11*
X102489000Y-62992000D03*
D12*
X98679000Y-62992000D03*
D11*
X63881000Y-67056000D03*
D12*
X60071000Y-67056000D03*
D11*
X63881000Y-62992000D03*
D12*
X60071000Y-62992000D03*
D11*
X102489000Y-38100000D03*
D12*
X98679000Y-38100000D03*
D11*
X102489000Y-34036000D03*
D12*
X98679000Y-34036000D03*
D11*
X83185000Y-38100000D03*
D12*
X79375000Y-38100000D03*
D11*
X83185000Y-34036000D03*
D12*
X79375000Y-34036000D03*
D11*
X63881000Y-47752000D03*
D12*
X60071000Y-47752000D03*
D11*
X63881000Y-43688000D03*
D12*
X60071000Y-43688000D03*
D11*
X83185000Y-47752000D03*
D12*
X79375000Y-47752000D03*
D11*
X83185000Y-43688000D03*
D12*
X79375000Y-43688000D03*
D11*
X83185000Y-67056000D03*
D12*
X79375000Y-67056000D03*
D11*
X83185000Y-62992000D03*
D12*
X79375000Y-62992000D03*
D11*
X63881000Y-38100000D03*
D12*
X60071000Y-38100000D03*
D11*
X63881000Y-34036000D03*
D12*
X60071000Y-34036000D03*
D11*
X83185000Y-57404000D03*
D12*
X79375000Y-57404000D03*
D11*
X83185000Y-53340000D03*
D12*
X79375000Y-53340000D03*
D11*
X44577000Y-38100000D03*
D12*
X40767000Y-38100000D03*
D11*
X44577000Y-34036000D03*
D12*
X40767000Y-34036000D03*
D11*
X83185000Y-76962000D03*
D12*
X79375000Y-76962000D03*
D11*
X83185000Y-72898000D03*
D12*
X79375000Y-72898000D03*
D11*
X73533000Y-57404000D03*
D12*
X69723000Y-57404000D03*
D11*
X73533000Y-53340000D03*
D12*
X69723000Y-53340000D03*
D11*
X73533000Y-71882000D03*
D12*
X69723000Y-71882000D03*
D11*
X73533000Y-67818000D03*
D12*
X69723000Y-67818000D03*
D13*
X61976000Y-50292000D03*
X61214000Y-49530000D03*
X62738000Y-49530000D03*
X61214000Y-51054000D03*
X62738000Y-51054000D03*
D14*
X78232000Y-29908500D03*
X78232000Y-28003500D03*
D15*
X73596500Y-30988000D03*
X71691500Y-30988000D03*
D16*
X28448000Y-55554880D03*
X28448000Y-53157120D03*
X76962000Y-55554880D03*
X76962000Y-53157120D03*
X76962000Y-65206880D03*
X76962000Y-62809120D03*
X76962000Y-45902880D03*
X76962000Y-43505120D03*
X76962000Y-36250880D03*
X76962000Y-33853120D03*
X96266000Y-36250880D03*
X96266000Y-33853120D03*
X96266000Y-45902880D03*
X96266000Y-43505120D03*
X96012000Y-65206880D03*
X96012000Y-62809120D03*
X96266000Y-55554880D03*
X96266000Y-53157120D03*
X96012000Y-74858880D03*
X96012000Y-72461120D03*
X86360000Y-74858880D03*
X86360000Y-72461120D03*
X86614000Y-55554880D03*
X86614000Y-53157120D03*
X86360000Y-65206880D03*
X86360000Y-62809120D03*
X86614000Y-45902880D03*
X86614000Y-43505120D03*
X86614000Y-36250880D03*
X86614000Y-33853120D03*
X47752000Y-36250880D03*
X47752000Y-33853120D03*
X47752000Y-45902880D03*
X47752000Y-43505120D03*
X76708000Y-74858880D03*
X76708000Y-72461120D03*
X67310000Y-55554880D03*
X67310000Y-53157120D03*
X67310000Y-64841120D03*
X67310000Y-67238880D03*
X67310000Y-45902880D03*
X67310000Y-43505120D03*
X67183000Y-36250880D03*
X67183000Y-33853120D03*
X115570000Y-36250880D03*
X115570000Y-33853120D03*
X115570000Y-45902880D03*
X115570000Y-43505120D03*
X115570000Y-65206880D03*
X115570000Y-62809120D03*
X115570000Y-55554880D03*
X115570000Y-53157120D03*
X115316000Y-74858880D03*
X115316000Y-72461120D03*
X105664000Y-74858880D03*
X105664000Y-72461120D03*
X105918000Y-55554880D03*
X105918000Y-53157120D03*
X105664000Y-65206880D03*
X105664000Y-62809120D03*
X105918000Y-45902880D03*
X105918000Y-43505120D03*
X105918000Y-36250880D03*
X105918000Y-33853120D03*
X38100000Y-45902880D03*
X38100000Y-43505120D03*
X38100000Y-36250880D03*
X38100000Y-33853120D03*
X38100000Y-65206880D03*
X38100000Y-62809120D03*
X57404000Y-36250880D03*
X57404000Y-33853120D03*
X38100000Y-55554880D03*
X38100000Y-53157120D03*
X57404000Y-45902880D03*
X57404000Y-43505120D03*
X38100000Y-74858880D03*
X38100000Y-72461120D03*
X57404000Y-65206880D03*
X57404000Y-62809120D03*
X57404000Y-55554880D03*
X57404000Y-53157120D03*
X57404000Y-74858880D03*
X57404000Y-72461120D03*
X28448000Y-74858880D03*
X28448000Y-72461120D03*
X28448000Y-45902880D03*
X28448000Y-43505120D03*
X47752000Y-74858880D03*
X47752000Y-72461120D03*
X47752000Y-65206880D03*
X47752000Y-62809120D03*
X28448000Y-65206880D03*
X28448000Y-62809120D03*
X47752000Y-55554880D03*
X47752000Y-53157120D03*
X28448000Y-36250880D03*
X28448000Y-33853120D03*
D17*
X29210000Y-27940000D03*
X120650000Y-27940000D03*
X120650000Y-82550000D03*
X29210000Y-82550000D03*
D18*
X68580000Y-29210000D03*
D19*
X66040000Y-29210000D03*
X63500000Y-29210000D03*
X60960000Y-29210000D03*
X58420000Y-29210000D03*
X55880000Y-29210000D03*
M02*
