G04 (created by PCBNEW-RS274X (2011-07-08 BZR 3044)-stable) date 26/12/2013 08:10:45*
G01*
G70*
G90*
%MOIN*%
G04 Gerber Fmt 3.4, Leading zero omitted, Abs format*
%FSLAX34Y34*%
G04 APERTURE LIST*
%ADD10C,0.006000*%
%ADD11C,0.010000*%
%ADD12C,0.012000*%
%ADD13R,0.114400X0.114400*%
%ADD14O,0.047500X0.025800*%
%ADD15O,0.025800X0.047500*%
%ADD16C,0.041000*%
%ADD17R,0.075000X0.075000*%
%ADD18C,0.075000*%
%ADD19R,0.055000X0.075000*%
%ADD20C,0.165700*%
%ADD21C,0.055000*%
G04 APERTURE END LIST*
G54D10*
G54D11*
X10000Y-33500D02*
X49000Y-33500D01*
G54D12*
X53865Y-19580D02*
X53865Y-19294D01*
X53484Y-19265D01*
X53522Y-19294D01*
X53560Y-19351D01*
X53560Y-19494D01*
X53522Y-19551D01*
X53484Y-19580D01*
X53408Y-19608D01*
X53218Y-19608D01*
X53141Y-19580D01*
X53103Y-19551D01*
X53065Y-19494D01*
X53065Y-19351D01*
X53103Y-19294D01*
X53141Y-19265D01*
X53065Y-19893D02*
X53065Y-20008D01*
X53103Y-20065D01*
X53141Y-20093D01*
X53256Y-20151D01*
X53408Y-20179D01*
X53713Y-20179D01*
X53789Y-20151D01*
X53827Y-20122D01*
X53865Y-20065D01*
X53865Y-19951D01*
X53827Y-19893D01*
X53789Y-19865D01*
X53713Y-19836D01*
X53522Y-19836D01*
X53446Y-19865D01*
X53408Y-19893D01*
X53370Y-19951D01*
X53370Y-20065D01*
X53408Y-20122D01*
X53446Y-20151D01*
X53522Y-20179D01*
X53141Y-20436D02*
X53103Y-20464D01*
X53065Y-20436D01*
X53103Y-20407D01*
X53141Y-20436D01*
X53065Y-20436D01*
X53865Y-20979D02*
X53865Y-20865D01*
X53827Y-20808D01*
X53789Y-20779D01*
X53675Y-20722D01*
X53522Y-20693D01*
X53218Y-20693D01*
X53141Y-20722D01*
X53103Y-20750D01*
X53065Y-20808D01*
X53065Y-20922D01*
X53103Y-20979D01*
X53141Y-21008D01*
X53218Y-21036D01*
X53408Y-21036D01*
X53484Y-21008D01*
X53522Y-20979D01*
X53560Y-20922D01*
X53560Y-20808D01*
X53522Y-20750D01*
X53484Y-20722D01*
X53408Y-20693D01*
X53065Y-21321D02*
X53065Y-21436D01*
X53103Y-21493D01*
X53141Y-21521D01*
X53256Y-21579D01*
X53408Y-21607D01*
X53713Y-21607D01*
X53789Y-21579D01*
X53827Y-21550D01*
X53865Y-21493D01*
X53865Y-21379D01*
X53827Y-21321D01*
X53789Y-21293D01*
X53713Y-21264D01*
X53522Y-21264D01*
X53446Y-21293D01*
X53408Y-21321D01*
X53370Y-21379D01*
X53370Y-21493D01*
X53408Y-21550D01*
X53446Y-21579D01*
X53522Y-21607D01*
X53865Y-21978D02*
X53865Y-22035D01*
X53827Y-22092D01*
X53789Y-22121D01*
X53713Y-22150D01*
X53560Y-22178D01*
X53370Y-22178D01*
X53218Y-22150D01*
X53141Y-22121D01*
X53103Y-22092D01*
X53065Y-22035D01*
X53065Y-21978D01*
X53103Y-21921D01*
X53141Y-21892D01*
X53218Y-21864D01*
X53370Y-21835D01*
X53560Y-21835D01*
X53713Y-21864D01*
X53789Y-21892D01*
X53827Y-21921D01*
X53865Y-21978D01*
X53065Y-22892D02*
X53599Y-22892D01*
X53522Y-22892D02*
X53560Y-22920D01*
X53599Y-22978D01*
X53599Y-23063D01*
X53560Y-23120D01*
X53484Y-23149D01*
X53065Y-23149D01*
X53484Y-23149D02*
X53560Y-23178D01*
X53599Y-23235D01*
X53599Y-23320D01*
X53560Y-23378D01*
X53484Y-23406D01*
X53065Y-23406D01*
X53065Y-23692D02*
X53599Y-23692D01*
X53522Y-23692D02*
X53560Y-23720D01*
X53599Y-23778D01*
X53599Y-23863D01*
X53560Y-23920D01*
X53484Y-23949D01*
X53065Y-23949D01*
X53484Y-23949D02*
X53560Y-23978D01*
X53599Y-24035D01*
X53599Y-24120D01*
X53560Y-24178D01*
X53484Y-24206D01*
X53065Y-24206D01*
X52749Y-10000D02*
X52749Y-33500D01*
X51000Y-10000D02*
X54029Y-10000D01*
X51000Y-33500D02*
X54029Y-33500D01*
X52749Y-33500D02*
X52519Y-33057D01*
X52749Y-33500D02*
X52979Y-33057D01*
X52749Y-10000D02*
X52519Y-10443D01*
X52749Y-10000D02*
X52979Y-10443D01*
X52039Y-19837D02*
X52077Y-19866D01*
X52115Y-19923D01*
X52115Y-20066D01*
X52077Y-20123D01*
X52039Y-20152D01*
X51963Y-20180D01*
X51887Y-20180D01*
X51772Y-20152D01*
X51315Y-19809D01*
X51315Y-20180D01*
X51391Y-20437D02*
X51353Y-20465D01*
X51315Y-20437D01*
X51353Y-20408D01*
X51391Y-20437D01*
X51315Y-20437D01*
X52115Y-20666D02*
X52115Y-21037D01*
X51810Y-20837D01*
X51810Y-20923D01*
X51772Y-20980D01*
X51734Y-21009D01*
X51658Y-21037D01*
X51468Y-21037D01*
X51391Y-21009D01*
X51353Y-20980D01*
X51315Y-20923D01*
X51315Y-20751D01*
X51353Y-20694D01*
X51391Y-20666D01*
X52115Y-21580D02*
X52115Y-21294D01*
X51734Y-21265D01*
X51772Y-21294D01*
X51810Y-21351D01*
X51810Y-21494D01*
X51772Y-21551D01*
X51734Y-21580D01*
X51658Y-21608D01*
X51468Y-21608D01*
X51391Y-21580D01*
X51353Y-21551D01*
X51315Y-21494D01*
X51315Y-21351D01*
X51353Y-21294D01*
X51391Y-21265D01*
X52115Y-21979D02*
X52115Y-22036D01*
X52077Y-22093D01*
X52039Y-22122D01*
X51963Y-22151D01*
X51810Y-22179D01*
X51620Y-22179D01*
X51468Y-22151D01*
X51391Y-22122D01*
X51353Y-22093D01*
X51315Y-22036D01*
X51315Y-21979D01*
X51353Y-21922D01*
X51391Y-21893D01*
X51468Y-21865D01*
X51620Y-21836D01*
X51810Y-21836D01*
X51963Y-21865D01*
X52039Y-21893D01*
X52077Y-21922D01*
X52115Y-21979D01*
X52115Y-22550D02*
X52115Y-22607D01*
X52077Y-22664D01*
X52039Y-22693D01*
X51963Y-22722D01*
X51810Y-22750D01*
X51620Y-22750D01*
X51468Y-22722D01*
X51391Y-22693D01*
X51353Y-22664D01*
X51315Y-22607D01*
X51315Y-22550D01*
X51353Y-22493D01*
X51391Y-22464D01*
X51468Y-22436D01*
X51620Y-22407D01*
X51810Y-22407D01*
X51963Y-22436D01*
X52039Y-22464D01*
X52077Y-22493D01*
X52115Y-22550D01*
X52115Y-23435D02*
X51963Y-23435D01*
X52115Y-23664D02*
X51963Y-23664D01*
X50999Y-10000D02*
X50999Y-33500D01*
X50500Y-10000D02*
X52279Y-10000D01*
X50500Y-33500D02*
X52279Y-33500D01*
X50999Y-33500D02*
X50769Y-33057D01*
X50999Y-33500D02*
X51229Y-33057D01*
X50999Y-10000D02*
X50769Y-10443D01*
X50999Y-10000D02*
X51229Y-10443D01*
X27072Y-39463D02*
X27187Y-39463D01*
X27244Y-39425D01*
X27272Y-39387D01*
X27330Y-39272D01*
X27358Y-39120D01*
X27358Y-38815D01*
X27330Y-38739D01*
X27301Y-38701D01*
X27244Y-38663D01*
X27130Y-38663D01*
X27072Y-38701D01*
X27044Y-38739D01*
X27015Y-38815D01*
X27015Y-39006D01*
X27044Y-39082D01*
X27072Y-39120D01*
X27130Y-39158D01*
X27244Y-39158D01*
X27301Y-39120D01*
X27330Y-39082D01*
X27358Y-39006D01*
X27643Y-39463D02*
X27758Y-39463D01*
X27815Y-39425D01*
X27843Y-39387D01*
X27901Y-39272D01*
X27929Y-39120D01*
X27929Y-38815D01*
X27901Y-38739D01*
X27872Y-38701D01*
X27815Y-38663D01*
X27701Y-38663D01*
X27643Y-38701D01*
X27615Y-38739D01*
X27586Y-38815D01*
X27586Y-39006D01*
X27615Y-39082D01*
X27643Y-39120D01*
X27701Y-39158D01*
X27815Y-39158D01*
X27872Y-39120D01*
X27901Y-39082D01*
X27929Y-39006D01*
X28186Y-39387D02*
X28214Y-39425D01*
X28186Y-39463D01*
X28157Y-39425D01*
X28186Y-39387D01*
X28186Y-39463D01*
X28586Y-38663D02*
X28643Y-38663D01*
X28700Y-38701D01*
X28729Y-38739D01*
X28758Y-38815D01*
X28786Y-38968D01*
X28786Y-39158D01*
X28758Y-39310D01*
X28729Y-39387D01*
X28700Y-39425D01*
X28643Y-39463D01*
X28586Y-39463D01*
X28529Y-39425D01*
X28500Y-39387D01*
X28472Y-39310D01*
X28443Y-39158D01*
X28443Y-38968D01*
X28472Y-38815D01*
X28500Y-38739D01*
X28529Y-38701D01*
X28586Y-38663D01*
X29300Y-38663D02*
X29186Y-38663D01*
X29129Y-38701D01*
X29100Y-38739D01*
X29043Y-38853D01*
X29014Y-39006D01*
X29014Y-39310D01*
X29043Y-39387D01*
X29071Y-39425D01*
X29129Y-39463D01*
X29243Y-39463D01*
X29300Y-39425D01*
X29329Y-39387D01*
X29357Y-39310D01*
X29357Y-39120D01*
X29329Y-39044D01*
X29300Y-39006D01*
X29243Y-38968D01*
X29129Y-38968D01*
X29071Y-39006D01*
X29043Y-39044D01*
X29014Y-39120D01*
X29728Y-38663D02*
X29785Y-38663D01*
X29842Y-38701D01*
X29871Y-38739D01*
X29900Y-38815D01*
X29928Y-38968D01*
X29928Y-39158D01*
X29900Y-39310D01*
X29871Y-39387D01*
X29842Y-39425D01*
X29785Y-39463D01*
X29728Y-39463D01*
X29671Y-39425D01*
X29642Y-39387D01*
X29614Y-39310D01*
X29585Y-39158D01*
X29585Y-38968D01*
X29614Y-38815D01*
X29642Y-38739D01*
X29671Y-38701D01*
X29728Y-38663D01*
X30642Y-39463D02*
X30642Y-38929D01*
X30642Y-39006D02*
X30670Y-38968D01*
X30728Y-38929D01*
X30813Y-38929D01*
X30870Y-38968D01*
X30899Y-39044D01*
X30899Y-39463D01*
X30899Y-39044D02*
X30928Y-38968D01*
X30985Y-38929D01*
X31070Y-38929D01*
X31128Y-38968D01*
X31156Y-39044D01*
X31156Y-39463D01*
X31442Y-39463D02*
X31442Y-38929D01*
X31442Y-39006D02*
X31470Y-38968D01*
X31528Y-38929D01*
X31613Y-38929D01*
X31670Y-38968D01*
X31699Y-39044D01*
X31699Y-39463D01*
X31699Y-39044D02*
X31728Y-38968D01*
X31785Y-38929D01*
X31870Y-38929D01*
X31928Y-38968D01*
X31956Y-39044D01*
X31956Y-39463D01*
X10000Y-38499D02*
X49000Y-38499D01*
X10000Y-36000D02*
X10000Y-39779D01*
X49000Y-36000D02*
X49000Y-39779D01*
X49000Y-38499D02*
X48557Y-38729D01*
X49000Y-38499D02*
X48557Y-38269D01*
X10000Y-38499D02*
X10443Y-38729D01*
X10000Y-38499D02*
X10443Y-38269D01*
X27559Y-37163D02*
X27930Y-37163D01*
X27730Y-37468D01*
X27816Y-37468D01*
X27873Y-37506D01*
X27902Y-37544D01*
X27930Y-37620D01*
X27930Y-37810D01*
X27902Y-37887D01*
X27873Y-37925D01*
X27816Y-37963D01*
X27644Y-37963D01*
X27587Y-37925D01*
X27559Y-37887D01*
X28187Y-37887D02*
X28215Y-37925D01*
X28187Y-37963D01*
X28158Y-37925D01*
X28187Y-37887D01*
X28187Y-37963D01*
X28501Y-37963D02*
X28616Y-37963D01*
X28673Y-37925D01*
X28701Y-37887D01*
X28759Y-37772D01*
X28787Y-37620D01*
X28787Y-37315D01*
X28759Y-37239D01*
X28730Y-37201D01*
X28673Y-37163D01*
X28559Y-37163D01*
X28501Y-37201D01*
X28473Y-37239D01*
X28444Y-37315D01*
X28444Y-37506D01*
X28473Y-37582D01*
X28501Y-37620D01*
X28559Y-37658D01*
X28673Y-37658D01*
X28730Y-37620D01*
X28759Y-37582D01*
X28787Y-37506D01*
X29158Y-37163D02*
X29215Y-37163D01*
X29272Y-37201D01*
X29301Y-37239D01*
X29330Y-37315D01*
X29358Y-37468D01*
X29358Y-37658D01*
X29330Y-37810D01*
X29301Y-37887D01*
X29272Y-37925D01*
X29215Y-37963D01*
X29158Y-37963D01*
X29101Y-37925D01*
X29072Y-37887D01*
X29044Y-37810D01*
X29015Y-37658D01*
X29015Y-37468D01*
X29044Y-37315D01*
X29072Y-37239D01*
X29101Y-37201D01*
X29158Y-37163D01*
X29729Y-37163D02*
X29786Y-37163D01*
X29843Y-37201D01*
X29872Y-37239D01*
X29901Y-37315D01*
X29929Y-37468D01*
X29929Y-37658D01*
X29901Y-37810D01*
X29872Y-37887D01*
X29843Y-37925D01*
X29786Y-37963D01*
X29729Y-37963D01*
X29672Y-37925D01*
X29643Y-37887D01*
X29615Y-37810D01*
X29586Y-37658D01*
X29586Y-37468D01*
X29615Y-37315D01*
X29643Y-37239D01*
X29672Y-37201D01*
X29729Y-37163D01*
X30300Y-37163D02*
X30357Y-37163D01*
X30414Y-37201D01*
X30443Y-37239D01*
X30472Y-37315D01*
X30500Y-37468D01*
X30500Y-37658D01*
X30472Y-37810D01*
X30443Y-37887D01*
X30414Y-37925D01*
X30357Y-37963D01*
X30300Y-37963D01*
X30243Y-37925D01*
X30214Y-37887D01*
X30186Y-37810D01*
X30157Y-37658D01*
X30157Y-37468D01*
X30186Y-37315D01*
X30214Y-37239D01*
X30243Y-37201D01*
X30300Y-37163D01*
X31185Y-37163D02*
X31185Y-37315D01*
X31414Y-37163D02*
X31414Y-37315D01*
X10000Y-36999D02*
X49000Y-36999D01*
X10000Y-36000D02*
X10000Y-38279D01*
X49000Y-36000D02*
X49000Y-38279D01*
X49000Y-36999D02*
X48557Y-37229D01*
X49000Y-36999D02*
X48557Y-36769D01*
X10000Y-36999D02*
X10443Y-37229D01*
X10000Y-36999D02*
X10443Y-36769D01*
G54D11*
X49000Y-33500D02*
X49000Y-10000D01*
X10000Y-10000D02*
X10000Y-33500D01*
X10000Y-10000D02*
X48950Y-10000D01*
%LPC*%
G54D13*
X24400Y-20800D03*
G54D14*
X25187Y-20308D03*
X25187Y-20505D03*
X25187Y-20702D03*
X25187Y-20898D03*
X25187Y-21095D03*
X25187Y-21292D03*
G54D15*
X24892Y-21587D03*
X24695Y-21587D03*
X24498Y-21587D03*
X24302Y-21587D03*
X24105Y-21587D03*
X23908Y-21587D03*
G54D14*
X23613Y-21292D03*
X23613Y-21095D03*
X23613Y-20898D03*
X23613Y-20702D03*
X23613Y-20505D03*
X23613Y-20308D03*
G54D15*
X23908Y-20013D03*
X24105Y-20013D03*
X24302Y-20013D03*
X24498Y-20013D03*
X24695Y-20013D03*
X24892Y-20013D03*
G54D16*
X24400Y-20800D03*
X24100Y-20500D03*
X24700Y-20500D03*
X24100Y-21100D03*
X24700Y-21100D03*
G54D17*
X27000Y-11000D03*
G54D18*
X26000Y-11000D03*
X25000Y-11000D03*
X24000Y-11000D03*
X23000Y-11000D03*
X22000Y-11000D03*
G54D19*
X24075Y-18600D03*
X23325Y-18600D03*
G54D20*
X11500Y-32500D03*
X47500Y-32500D03*
X47500Y-11000D03*
X11500Y-11000D03*
G54D21*
X22700Y-13400D03*
X13800Y-20300D03*
X17600Y-20700D03*
X21300Y-20900D03*
X24500Y-29700D03*
X29000Y-30000D03*
X32100Y-29800D03*
X35900Y-29700D03*
X39600Y-29700D03*
X43400Y-29700D03*
X48000Y-30500D03*
X47200Y-27900D03*
X32000Y-26700D03*
X26000Y-20500D03*
X25600Y-19100D03*
X25500Y-15300D03*
X20100Y-11300D03*
X14100Y-32400D03*
M02*
