M48
;DRILL file {PCBnew (2011-07-08 BZR 3044)-stable} date 22/12/2013 19:48:32
;FORMAT={-:-/ absolute / inch / decimal}
FMAT,2
INCH,TZ
T1C0.013
T2C0.020
T3C0.032
T4C0.138
%
G90
G05
M72
T1
X1.380Y2.030
X1.410Y3.240
X1.760Y2.070
X2.010Y1.130
X2.130Y2.090
X2.270Y1.340
X2.450Y2.970
X2.550Y1.530
X2.560Y1.910
X2.600Y2.050
X2.900Y3.000
X3.200Y2.670
X3.210Y2.980
X3.590Y2.970
X3.960Y2.970
X4.340Y2.970
X4.720Y2.790
X4.800Y3.050
T2
X2.410Y2.050
X2.410Y2.110
X2.440Y2.080
X2.470Y2.050
X2.470Y2.110
T3
X2.200Y1.100
X2.300Y1.100
X2.400Y1.100
X2.500Y1.100
X2.600Y1.100
X2.700Y1.100
T4
X1.150Y1.100
X1.150Y3.250
X4.750Y1.100
X4.750Y3.250
T0
M30
