G04 (created by PCBNEW (2011-07-08 BZR 3044)-stable) date 22/12/2013 19:48:38*
G01*
G70*
G90*
%MOIN*%
G04 Gerber Fmt 3.4, Leading zero omitted, Abs format*
%FSLAX34Y34*%
G04 APERTURE LIST*
%ADD10C,0.001000*%
%ADD11C,0.010000*%
%ADD12C,0.012000*%
%ADD13C,0.008000*%
G04 APERTURE END LIST*
G54D10*
G54D11*
X10000Y-33500D02*
X49000Y-33500D01*
G54D12*
X53865Y-19580D02*
X53865Y-19294D01*
X53484Y-19265D01*
X53522Y-19294D01*
X53560Y-19351D01*
X53560Y-19494D01*
X53522Y-19551D01*
X53484Y-19580D01*
X53408Y-19608D01*
X53218Y-19608D01*
X53141Y-19580D01*
X53103Y-19551D01*
X53065Y-19494D01*
X53065Y-19351D01*
X53103Y-19294D01*
X53141Y-19265D01*
X53065Y-19893D02*
X53065Y-20008D01*
X53103Y-20065D01*
X53141Y-20093D01*
X53256Y-20151D01*
X53408Y-20179D01*
X53713Y-20179D01*
X53789Y-20151D01*
X53827Y-20122D01*
X53865Y-20065D01*
X53865Y-19951D01*
X53827Y-19893D01*
X53789Y-19865D01*
X53713Y-19836D01*
X53522Y-19836D01*
X53446Y-19865D01*
X53408Y-19893D01*
X53370Y-19951D01*
X53370Y-20065D01*
X53408Y-20122D01*
X53446Y-20151D01*
X53522Y-20179D01*
X53141Y-20436D02*
X53103Y-20464D01*
X53065Y-20436D01*
X53103Y-20407D01*
X53141Y-20436D01*
X53065Y-20436D01*
X53865Y-20979D02*
X53865Y-20865D01*
X53827Y-20808D01*
X53789Y-20779D01*
X53675Y-20722D01*
X53522Y-20693D01*
X53218Y-20693D01*
X53141Y-20722D01*
X53103Y-20750D01*
X53065Y-20808D01*
X53065Y-20922D01*
X53103Y-20979D01*
X53141Y-21008D01*
X53218Y-21036D01*
X53408Y-21036D01*
X53484Y-21008D01*
X53522Y-20979D01*
X53560Y-20922D01*
X53560Y-20808D01*
X53522Y-20750D01*
X53484Y-20722D01*
X53408Y-20693D01*
X53065Y-21321D02*
X53065Y-21436D01*
X53103Y-21493D01*
X53141Y-21521D01*
X53256Y-21579D01*
X53408Y-21607D01*
X53713Y-21607D01*
X53789Y-21579D01*
X53827Y-21550D01*
X53865Y-21493D01*
X53865Y-21379D01*
X53827Y-21321D01*
X53789Y-21293D01*
X53713Y-21264D01*
X53522Y-21264D01*
X53446Y-21293D01*
X53408Y-21321D01*
X53370Y-21379D01*
X53370Y-21493D01*
X53408Y-21550D01*
X53446Y-21579D01*
X53522Y-21607D01*
X53865Y-21978D02*
X53865Y-22035D01*
X53827Y-22092D01*
X53789Y-22121D01*
X53713Y-22150D01*
X53560Y-22178D01*
X53370Y-22178D01*
X53218Y-22150D01*
X53141Y-22121D01*
X53103Y-22092D01*
X53065Y-22035D01*
X53065Y-21978D01*
X53103Y-21921D01*
X53141Y-21892D01*
X53218Y-21864D01*
X53370Y-21835D01*
X53560Y-21835D01*
X53713Y-21864D01*
X53789Y-21892D01*
X53827Y-21921D01*
X53865Y-21978D01*
X53065Y-22892D02*
X53599Y-22892D01*
X53522Y-22892D02*
X53560Y-22920D01*
X53599Y-22978D01*
X53599Y-23063D01*
X53560Y-23120D01*
X53484Y-23149D01*
X53065Y-23149D01*
X53484Y-23149D02*
X53560Y-23178D01*
X53599Y-23235D01*
X53599Y-23320D01*
X53560Y-23378D01*
X53484Y-23406D01*
X53065Y-23406D01*
X53065Y-23692D02*
X53599Y-23692D01*
X53522Y-23692D02*
X53560Y-23720D01*
X53599Y-23778D01*
X53599Y-23863D01*
X53560Y-23920D01*
X53484Y-23949D01*
X53065Y-23949D01*
X53484Y-23949D02*
X53560Y-23978D01*
X53599Y-24035D01*
X53599Y-24120D01*
X53560Y-24178D01*
X53484Y-24206D01*
X53065Y-24206D01*
X52749Y-10000D02*
X52749Y-33500D01*
X51000Y-10000D02*
X54029Y-10000D01*
X51000Y-33500D02*
X54029Y-33500D01*
X52749Y-33500D02*
X52519Y-33057D01*
X52749Y-33500D02*
X52979Y-33057D01*
X52749Y-10000D02*
X52519Y-10443D01*
X52749Y-10000D02*
X52979Y-10443D01*
X52039Y-19837D02*
X52077Y-19866D01*
X52115Y-19923D01*
X52115Y-20066D01*
X52077Y-20123D01*
X52039Y-20152D01*
X51963Y-20180D01*
X51887Y-20180D01*
X51772Y-20152D01*
X51315Y-19809D01*
X51315Y-20180D01*
X51391Y-20437D02*
X51353Y-20465D01*
X51315Y-20437D01*
X51353Y-20408D01*
X51391Y-20437D01*
X51315Y-20437D01*
X52115Y-20666D02*
X52115Y-21037D01*
X51810Y-20837D01*
X51810Y-20923D01*
X51772Y-20980D01*
X51734Y-21009D01*
X51658Y-21037D01*
X51468Y-21037D01*
X51391Y-21009D01*
X51353Y-20980D01*
X51315Y-20923D01*
X51315Y-20751D01*
X51353Y-20694D01*
X51391Y-20666D01*
X52115Y-21580D02*
X52115Y-21294D01*
X51734Y-21265D01*
X51772Y-21294D01*
X51810Y-21351D01*
X51810Y-21494D01*
X51772Y-21551D01*
X51734Y-21580D01*
X51658Y-21608D01*
X51468Y-21608D01*
X51391Y-21580D01*
X51353Y-21551D01*
X51315Y-21494D01*
X51315Y-21351D01*
X51353Y-21294D01*
X51391Y-21265D01*
X52115Y-21979D02*
X52115Y-22036D01*
X52077Y-22093D01*
X52039Y-22122D01*
X51963Y-22151D01*
X51810Y-22179D01*
X51620Y-22179D01*
X51468Y-22151D01*
X51391Y-22122D01*
X51353Y-22093D01*
X51315Y-22036D01*
X51315Y-21979D01*
X51353Y-21922D01*
X51391Y-21893D01*
X51468Y-21865D01*
X51620Y-21836D01*
X51810Y-21836D01*
X51963Y-21865D01*
X52039Y-21893D01*
X52077Y-21922D01*
X52115Y-21979D01*
X52115Y-22550D02*
X52115Y-22607D01*
X52077Y-22664D01*
X52039Y-22693D01*
X51963Y-22722D01*
X51810Y-22750D01*
X51620Y-22750D01*
X51468Y-22722D01*
X51391Y-22693D01*
X51353Y-22664D01*
X51315Y-22607D01*
X51315Y-22550D01*
X51353Y-22493D01*
X51391Y-22464D01*
X51468Y-22436D01*
X51620Y-22407D01*
X51810Y-22407D01*
X51963Y-22436D01*
X52039Y-22464D01*
X52077Y-22493D01*
X52115Y-22550D01*
X52115Y-23435D02*
X51963Y-23435D01*
X52115Y-23664D02*
X51963Y-23664D01*
X50999Y-10000D02*
X50999Y-33500D01*
X50500Y-10000D02*
X52279Y-10000D01*
X50500Y-33500D02*
X52279Y-33500D01*
X50999Y-33500D02*
X50769Y-33057D01*
X50999Y-33500D02*
X51229Y-33057D01*
X50999Y-10000D02*
X50769Y-10443D01*
X50999Y-10000D02*
X51229Y-10443D01*
X27072Y-39463D02*
X27187Y-39463D01*
X27244Y-39425D01*
X27272Y-39387D01*
X27330Y-39272D01*
X27358Y-39120D01*
X27358Y-38815D01*
X27330Y-38739D01*
X27301Y-38701D01*
X27244Y-38663D01*
X27130Y-38663D01*
X27072Y-38701D01*
X27044Y-38739D01*
X27015Y-38815D01*
X27015Y-39006D01*
X27044Y-39082D01*
X27072Y-39120D01*
X27130Y-39158D01*
X27244Y-39158D01*
X27301Y-39120D01*
X27330Y-39082D01*
X27358Y-39006D01*
X27643Y-39463D02*
X27758Y-39463D01*
X27815Y-39425D01*
X27843Y-39387D01*
X27901Y-39272D01*
X27929Y-39120D01*
X27929Y-38815D01*
X27901Y-38739D01*
X27872Y-38701D01*
X27815Y-38663D01*
X27701Y-38663D01*
X27643Y-38701D01*
X27615Y-38739D01*
X27586Y-38815D01*
X27586Y-39006D01*
X27615Y-39082D01*
X27643Y-39120D01*
X27701Y-39158D01*
X27815Y-39158D01*
X27872Y-39120D01*
X27901Y-39082D01*
X27929Y-39006D01*
X28186Y-39387D02*
X28214Y-39425D01*
X28186Y-39463D01*
X28157Y-39425D01*
X28186Y-39387D01*
X28186Y-39463D01*
X28586Y-38663D02*
X28643Y-38663D01*
X28700Y-38701D01*
X28729Y-38739D01*
X28758Y-38815D01*
X28786Y-38968D01*
X28786Y-39158D01*
X28758Y-39310D01*
X28729Y-39387D01*
X28700Y-39425D01*
X28643Y-39463D01*
X28586Y-39463D01*
X28529Y-39425D01*
X28500Y-39387D01*
X28472Y-39310D01*
X28443Y-39158D01*
X28443Y-38968D01*
X28472Y-38815D01*
X28500Y-38739D01*
X28529Y-38701D01*
X28586Y-38663D01*
X29300Y-38663D02*
X29186Y-38663D01*
X29129Y-38701D01*
X29100Y-38739D01*
X29043Y-38853D01*
X29014Y-39006D01*
X29014Y-39310D01*
X29043Y-39387D01*
X29071Y-39425D01*
X29129Y-39463D01*
X29243Y-39463D01*
X29300Y-39425D01*
X29329Y-39387D01*
X29357Y-39310D01*
X29357Y-39120D01*
X29329Y-39044D01*
X29300Y-39006D01*
X29243Y-38968D01*
X29129Y-38968D01*
X29071Y-39006D01*
X29043Y-39044D01*
X29014Y-39120D01*
X29728Y-38663D02*
X29785Y-38663D01*
X29842Y-38701D01*
X29871Y-38739D01*
X29900Y-38815D01*
X29928Y-38968D01*
X29928Y-39158D01*
X29900Y-39310D01*
X29871Y-39387D01*
X29842Y-39425D01*
X29785Y-39463D01*
X29728Y-39463D01*
X29671Y-39425D01*
X29642Y-39387D01*
X29614Y-39310D01*
X29585Y-39158D01*
X29585Y-38968D01*
X29614Y-38815D01*
X29642Y-38739D01*
X29671Y-38701D01*
X29728Y-38663D01*
X30642Y-39463D02*
X30642Y-38929D01*
X30642Y-39006D02*
X30670Y-38968D01*
X30728Y-38929D01*
X30813Y-38929D01*
X30870Y-38968D01*
X30899Y-39044D01*
X30899Y-39463D01*
X30899Y-39044D02*
X30928Y-38968D01*
X30985Y-38929D01*
X31070Y-38929D01*
X31128Y-38968D01*
X31156Y-39044D01*
X31156Y-39463D01*
X31442Y-39463D02*
X31442Y-38929D01*
X31442Y-39006D02*
X31470Y-38968D01*
X31528Y-38929D01*
X31613Y-38929D01*
X31670Y-38968D01*
X31699Y-39044D01*
X31699Y-39463D01*
X31699Y-39044D02*
X31728Y-38968D01*
X31785Y-38929D01*
X31870Y-38929D01*
X31928Y-38968D01*
X31956Y-39044D01*
X31956Y-39463D01*
X10000Y-38499D02*
X49000Y-38499D01*
X10000Y-36000D02*
X10000Y-39779D01*
X49000Y-36000D02*
X49000Y-39779D01*
X49000Y-38499D02*
X48557Y-38729D01*
X49000Y-38499D02*
X48557Y-38269D01*
X10000Y-38499D02*
X10443Y-38729D01*
X10000Y-38499D02*
X10443Y-38269D01*
X27559Y-37163D02*
X27930Y-37163D01*
X27730Y-37468D01*
X27816Y-37468D01*
X27873Y-37506D01*
X27902Y-37544D01*
X27930Y-37620D01*
X27930Y-37810D01*
X27902Y-37887D01*
X27873Y-37925D01*
X27816Y-37963D01*
X27644Y-37963D01*
X27587Y-37925D01*
X27559Y-37887D01*
X28187Y-37887D02*
X28215Y-37925D01*
X28187Y-37963D01*
X28158Y-37925D01*
X28187Y-37887D01*
X28187Y-37963D01*
X28501Y-37963D02*
X28616Y-37963D01*
X28673Y-37925D01*
X28701Y-37887D01*
X28759Y-37772D01*
X28787Y-37620D01*
X28787Y-37315D01*
X28759Y-37239D01*
X28730Y-37201D01*
X28673Y-37163D01*
X28559Y-37163D01*
X28501Y-37201D01*
X28473Y-37239D01*
X28444Y-37315D01*
X28444Y-37506D01*
X28473Y-37582D01*
X28501Y-37620D01*
X28559Y-37658D01*
X28673Y-37658D01*
X28730Y-37620D01*
X28759Y-37582D01*
X28787Y-37506D01*
X29158Y-37163D02*
X29215Y-37163D01*
X29272Y-37201D01*
X29301Y-37239D01*
X29330Y-37315D01*
X29358Y-37468D01*
X29358Y-37658D01*
X29330Y-37810D01*
X29301Y-37887D01*
X29272Y-37925D01*
X29215Y-37963D01*
X29158Y-37963D01*
X29101Y-37925D01*
X29072Y-37887D01*
X29044Y-37810D01*
X29015Y-37658D01*
X29015Y-37468D01*
X29044Y-37315D01*
X29072Y-37239D01*
X29101Y-37201D01*
X29158Y-37163D01*
X29729Y-37163D02*
X29786Y-37163D01*
X29843Y-37201D01*
X29872Y-37239D01*
X29901Y-37315D01*
X29929Y-37468D01*
X29929Y-37658D01*
X29901Y-37810D01*
X29872Y-37887D01*
X29843Y-37925D01*
X29786Y-37963D01*
X29729Y-37963D01*
X29672Y-37925D01*
X29643Y-37887D01*
X29615Y-37810D01*
X29586Y-37658D01*
X29586Y-37468D01*
X29615Y-37315D01*
X29643Y-37239D01*
X29672Y-37201D01*
X29729Y-37163D01*
X30300Y-37163D02*
X30357Y-37163D01*
X30414Y-37201D01*
X30443Y-37239D01*
X30472Y-37315D01*
X30500Y-37468D01*
X30500Y-37658D01*
X30472Y-37810D01*
X30443Y-37887D01*
X30414Y-37925D01*
X30357Y-37963D01*
X30300Y-37963D01*
X30243Y-37925D01*
X30214Y-37887D01*
X30186Y-37810D01*
X30157Y-37658D01*
X30157Y-37468D01*
X30186Y-37315D01*
X30214Y-37239D01*
X30243Y-37201D01*
X30300Y-37163D01*
X31185Y-37163D02*
X31185Y-37315D01*
X31414Y-37163D02*
X31414Y-37315D01*
X10000Y-36999D02*
X49000Y-36999D01*
X10000Y-36000D02*
X10000Y-38279D01*
X49000Y-36000D02*
X49000Y-38279D01*
X49000Y-36999D02*
X48557Y-37229D01*
X49000Y-36999D02*
X48557Y-36769D01*
X10000Y-36999D02*
X10443Y-37229D01*
X10000Y-36999D02*
X10443Y-36769D01*
G54D11*
X49000Y-33500D02*
X49000Y-10000D01*
X10000Y-10000D02*
X10000Y-33500D01*
X10000Y-10000D02*
X48950Y-10000D01*
G54D10*
X13735Y-20235D02*
X13865Y-20365D01*
X13865Y-20235D02*
X13735Y-20365D01*
X14035Y-32335D02*
X14165Y-32465D01*
X14165Y-32335D02*
X14035Y-32465D01*
X17535Y-20635D02*
X17665Y-20765D01*
X17665Y-20635D02*
X17535Y-20765D01*
X20035Y-11235D02*
X20165Y-11365D01*
X20165Y-11235D02*
X20035Y-11365D01*
X21235Y-20835D02*
X21365Y-20965D01*
X21365Y-20835D02*
X21235Y-20965D01*
X22635Y-13335D02*
X22765Y-13465D01*
X22765Y-13335D02*
X22635Y-13465D01*
X24435Y-29635D02*
X24565Y-29765D01*
X24565Y-29635D02*
X24435Y-29765D01*
X25435Y-15235D02*
X25565Y-15365D01*
X25565Y-15235D02*
X25435Y-15365D01*
X25535Y-19035D02*
X25665Y-19165D01*
X25665Y-19035D02*
X25535Y-19165D01*
X25935Y-20435D02*
X26065Y-20565D01*
X26065Y-20435D02*
X25935Y-20565D01*
X28935Y-29935D02*
X29065Y-30065D01*
X29065Y-29935D02*
X28935Y-30065D01*
X31935Y-26635D02*
X32065Y-26765D01*
X32065Y-26635D02*
X31935Y-26765D01*
X32035Y-29735D02*
X32165Y-29865D01*
X32165Y-29735D02*
X32035Y-29865D01*
X35835Y-29635D02*
X35965Y-29765D01*
X35965Y-29635D02*
X35835Y-29765D01*
X39535Y-29635D02*
X39665Y-29765D01*
X39665Y-29635D02*
X39535Y-29765D01*
X43335Y-29635D02*
X43465Y-29765D01*
X43465Y-29635D02*
X43335Y-29765D01*
X47135Y-27835D02*
X47265Y-27965D01*
X47265Y-27835D02*
X47135Y-27965D01*
X47935Y-30435D02*
X48065Y-30565D01*
X48065Y-30435D02*
X47935Y-30565D01*
X24200Y-20500D02*
X24198Y-20519D01*
X24192Y-20538D01*
X24183Y-20555D01*
X24170Y-20570D01*
X24155Y-20582D01*
X24138Y-20592D01*
X24120Y-20597D01*
X24100Y-20599D01*
X24082Y-20598D01*
X24063Y-20592D01*
X24046Y-20583D01*
X24031Y-20571D01*
X24018Y-20556D01*
X24009Y-20539D01*
X24003Y-20520D01*
X24001Y-20501D01*
X24002Y-20482D01*
X24008Y-20464D01*
X24016Y-20446D01*
X24029Y-20431D01*
X24043Y-20418D01*
X24060Y-20409D01*
X24079Y-20403D01*
X24098Y-20401D01*
X24117Y-20402D01*
X24136Y-20407D01*
X24153Y-20416D01*
X24168Y-20428D01*
X24181Y-20443D01*
X24191Y-20460D01*
X24197Y-20478D01*
X24199Y-20498D01*
X24200Y-20500D01*
X24200Y-21100D02*
X24198Y-21119D01*
X24192Y-21138D01*
X24183Y-21155D01*
X24170Y-21170D01*
X24155Y-21182D01*
X24138Y-21192D01*
X24120Y-21197D01*
X24100Y-21199D01*
X24082Y-21198D01*
X24063Y-21192D01*
X24046Y-21183D01*
X24031Y-21171D01*
X24018Y-21156D01*
X24009Y-21139D01*
X24003Y-21120D01*
X24001Y-21101D01*
X24002Y-21082D01*
X24008Y-21064D01*
X24016Y-21046D01*
X24029Y-21031D01*
X24043Y-21018D01*
X24060Y-21009D01*
X24079Y-21003D01*
X24098Y-21001D01*
X24117Y-21002D01*
X24136Y-21007D01*
X24153Y-21016D01*
X24168Y-21028D01*
X24181Y-21043D01*
X24191Y-21060D01*
X24197Y-21078D01*
X24199Y-21098D01*
X24200Y-21100D01*
X24500Y-20800D02*
X24498Y-20819D01*
X24492Y-20838D01*
X24483Y-20855D01*
X24470Y-20870D01*
X24455Y-20882D01*
X24438Y-20892D01*
X24420Y-20897D01*
X24400Y-20899D01*
X24382Y-20898D01*
X24363Y-20892D01*
X24346Y-20883D01*
X24331Y-20871D01*
X24318Y-20856D01*
X24309Y-20839D01*
X24303Y-20820D01*
X24301Y-20801D01*
X24302Y-20782D01*
X24308Y-20764D01*
X24316Y-20746D01*
X24329Y-20731D01*
X24343Y-20718D01*
X24360Y-20709D01*
X24379Y-20703D01*
X24398Y-20701D01*
X24417Y-20702D01*
X24436Y-20707D01*
X24453Y-20716D01*
X24468Y-20728D01*
X24481Y-20743D01*
X24491Y-20760D01*
X24497Y-20778D01*
X24499Y-20798D01*
X24500Y-20800D01*
X24800Y-20500D02*
X24798Y-20519D01*
X24792Y-20538D01*
X24783Y-20555D01*
X24770Y-20570D01*
X24755Y-20582D01*
X24738Y-20592D01*
X24720Y-20597D01*
X24700Y-20599D01*
X24682Y-20598D01*
X24663Y-20592D01*
X24646Y-20583D01*
X24631Y-20571D01*
X24618Y-20556D01*
X24609Y-20539D01*
X24603Y-20520D01*
X24601Y-20501D01*
X24602Y-20482D01*
X24608Y-20464D01*
X24616Y-20446D01*
X24629Y-20431D01*
X24643Y-20418D01*
X24660Y-20409D01*
X24679Y-20403D01*
X24698Y-20401D01*
X24717Y-20402D01*
X24736Y-20407D01*
X24753Y-20416D01*
X24768Y-20428D01*
X24781Y-20443D01*
X24791Y-20460D01*
X24797Y-20478D01*
X24799Y-20498D01*
X24800Y-20500D01*
X24800Y-21100D02*
X24798Y-21119D01*
X24792Y-21138D01*
X24783Y-21155D01*
X24770Y-21170D01*
X24755Y-21182D01*
X24738Y-21192D01*
X24720Y-21197D01*
X24700Y-21199D01*
X24682Y-21198D01*
X24663Y-21192D01*
X24646Y-21183D01*
X24631Y-21171D01*
X24618Y-21156D01*
X24609Y-21139D01*
X24603Y-21120D01*
X24601Y-21101D01*
X24602Y-21082D01*
X24608Y-21064D01*
X24616Y-21046D01*
X24629Y-21031D01*
X24643Y-21018D01*
X24660Y-21009D01*
X24679Y-21003D01*
X24698Y-21001D01*
X24717Y-21002D01*
X24736Y-21007D01*
X24753Y-21016D01*
X24768Y-21028D01*
X24781Y-21043D01*
X24791Y-21060D01*
X24797Y-21078D01*
X24799Y-21098D01*
X24800Y-21100D01*
X22000Y-10840D02*
X22000Y-11160D01*
X22160Y-11000D02*
X21840Y-11000D01*
X23000Y-10840D02*
X23000Y-11160D01*
X23160Y-11000D02*
X22840Y-11000D01*
X24000Y-10840D02*
X24000Y-11160D01*
X24160Y-11000D02*
X23840Y-11000D01*
X25000Y-10840D02*
X25000Y-11160D01*
X25160Y-11000D02*
X24840Y-11000D01*
X26000Y-10840D02*
X26000Y-11160D01*
X26160Y-11000D02*
X25840Y-11000D01*
X27000Y-10840D02*
X27000Y-11160D01*
X27160Y-11000D02*
X26840Y-11000D01*
X12189Y-11000D02*
X12175Y-11133D01*
X12137Y-11262D01*
X12073Y-11381D01*
X11988Y-11485D01*
X11885Y-11571D01*
X11766Y-11635D01*
X11638Y-11674D01*
X11504Y-11688D01*
X11371Y-11676D01*
X11242Y-11638D01*
X11123Y-11576D01*
X11018Y-11492D01*
X10932Y-11389D01*
X10867Y-11271D01*
X10827Y-11143D01*
X10812Y-11009D01*
X10823Y-10876D01*
X10860Y-10747D01*
X10921Y-10627D01*
X11005Y-10522D01*
X11107Y-10435D01*
X11225Y-10369D01*
X11353Y-10328D01*
X11486Y-10312D01*
X11619Y-10322D01*
X11749Y-10358D01*
X11869Y-10419D01*
X11975Y-10502D01*
X12063Y-10603D01*
X12129Y-10720D01*
X12171Y-10848D01*
X12188Y-10981D01*
X12189Y-11000D01*
X10811Y-10311D02*
X12189Y-11689D01*
X12189Y-10311D02*
X10811Y-11689D01*
X12189Y-32500D02*
X12175Y-32633D01*
X12137Y-32762D01*
X12073Y-32881D01*
X11988Y-32985D01*
X11885Y-33071D01*
X11766Y-33135D01*
X11638Y-33174D01*
X11504Y-33188D01*
X11371Y-33176D01*
X11242Y-33138D01*
X11123Y-33076D01*
X11018Y-32992D01*
X10932Y-32889D01*
X10867Y-32771D01*
X10827Y-32643D01*
X10812Y-32509D01*
X10823Y-32376D01*
X10860Y-32247D01*
X10921Y-32127D01*
X11005Y-32022D01*
X11107Y-31935D01*
X11225Y-31869D01*
X11353Y-31828D01*
X11486Y-31812D01*
X11619Y-31822D01*
X11749Y-31858D01*
X11869Y-31919D01*
X11975Y-32002D01*
X12063Y-32103D01*
X12129Y-32220D01*
X12171Y-32348D01*
X12188Y-32481D01*
X12189Y-32500D01*
X10811Y-31811D02*
X12189Y-33189D01*
X12189Y-31811D02*
X10811Y-33189D01*
X48189Y-11000D02*
X48175Y-11133D01*
X48137Y-11262D01*
X48073Y-11381D01*
X47988Y-11485D01*
X47885Y-11571D01*
X47766Y-11635D01*
X47638Y-11674D01*
X47504Y-11688D01*
X47371Y-11676D01*
X47242Y-11638D01*
X47123Y-11576D01*
X47018Y-11492D01*
X46932Y-11389D01*
X46867Y-11271D01*
X46827Y-11143D01*
X46812Y-11009D01*
X46823Y-10876D01*
X46860Y-10747D01*
X46921Y-10627D01*
X47005Y-10522D01*
X47107Y-10435D01*
X47225Y-10369D01*
X47353Y-10328D01*
X47486Y-10312D01*
X47619Y-10322D01*
X47749Y-10358D01*
X47869Y-10419D01*
X47975Y-10502D01*
X48063Y-10603D01*
X48129Y-10720D01*
X48171Y-10848D01*
X48188Y-10981D01*
X48189Y-11000D01*
X46811Y-10311D02*
X48189Y-11689D01*
X48189Y-10311D02*
X46811Y-11689D01*
X48189Y-32500D02*
X48175Y-32633D01*
X48137Y-32762D01*
X48073Y-32881D01*
X47988Y-32985D01*
X47885Y-33071D01*
X47766Y-33135D01*
X47638Y-33174D01*
X47504Y-33188D01*
X47371Y-33176D01*
X47242Y-33138D01*
X47123Y-33076D01*
X47018Y-32992D01*
X46932Y-32889D01*
X46867Y-32771D01*
X46827Y-32643D01*
X46812Y-32509D01*
X46823Y-32376D01*
X46860Y-32247D01*
X46921Y-32127D01*
X47005Y-32022D01*
X47107Y-31935D01*
X47225Y-31869D01*
X47353Y-31828D01*
X47486Y-31812D01*
X47619Y-31822D01*
X47749Y-31858D01*
X47869Y-31919D01*
X47975Y-32002D01*
X48063Y-32103D01*
X48129Y-32220D01*
X48171Y-32348D01*
X48188Y-32481D01*
X48189Y-32500D01*
X46811Y-31811D02*
X48189Y-33189D01*
X48189Y-31811D02*
X46811Y-33189D01*
G54D13*
X10339Y-40984D02*
X10339Y-40184D01*
X10530Y-40184D01*
X10644Y-40222D01*
X10720Y-40298D01*
X10759Y-40374D01*
X10797Y-40527D01*
X10797Y-40641D01*
X10759Y-40793D01*
X10720Y-40870D01*
X10644Y-40946D01*
X10530Y-40984D01*
X10339Y-40984D01*
X11139Y-40984D02*
X11139Y-40450D01*
X11139Y-40603D02*
X11178Y-40527D01*
X11216Y-40489D01*
X11292Y-40450D01*
X11368Y-40450D01*
X11634Y-40984D02*
X11634Y-40450D01*
X11634Y-40184D02*
X11596Y-40222D01*
X11634Y-40260D01*
X11673Y-40222D01*
X11634Y-40184D01*
X11634Y-40260D01*
X12130Y-40984D02*
X12054Y-40946D01*
X12015Y-40870D01*
X12015Y-40184D01*
X12549Y-40984D02*
X12473Y-40946D01*
X12434Y-40870D01*
X12434Y-40184D01*
X13463Y-40984D02*
X13463Y-40184D01*
X13730Y-40755D01*
X13997Y-40184D01*
X13997Y-40984D01*
X14720Y-40984D02*
X14720Y-40565D01*
X14682Y-40489D01*
X14606Y-40450D01*
X14454Y-40450D01*
X14377Y-40489D01*
X14720Y-40946D02*
X14644Y-40984D01*
X14454Y-40984D01*
X14377Y-40946D01*
X14339Y-40870D01*
X14339Y-40793D01*
X14377Y-40717D01*
X14454Y-40679D01*
X14644Y-40679D01*
X14720Y-40641D01*
X15101Y-40450D02*
X15101Y-41250D01*
X15101Y-40489D02*
X15178Y-40450D01*
X15330Y-40450D01*
X15406Y-40489D01*
X15444Y-40527D01*
X15482Y-40603D01*
X15482Y-40831D01*
X15444Y-40908D01*
X15406Y-40946D01*
X15330Y-40984D01*
X15178Y-40984D01*
X15101Y-40946D01*
X15825Y-40908D02*
X15864Y-40946D01*
X15825Y-40984D01*
X15787Y-40946D01*
X15825Y-40908D01*
X15825Y-40984D01*
X15825Y-40489D02*
X15864Y-40527D01*
X15825Y-40565D01*
X15787Y-40527D01*
X15825Y-40489D01*
X15825Y-40565D01*
X09819Y-42275D02*
X09949Y-42405D01*
X09949Y-42275D02*
X09819Y-42405D01*
X10492Y-41864D02*
X10568Y-41864D01*
X10644Y-41902D01*
X10682Y-41940D01*
X10720Y-42016D01*
X10759Y-42169D01*
X10759Y-42359D01*
X10720Y-42511D01*
X10682Y-42588D01*
X10644Y-42626D01*
X10568Y-42664D01*
X10492Y-42664D01*
X10416Y-42626D01*
X10378Y-42588D01*
X10339Y-42511D01*
X10301Y-42359D01*
X10301Y-42169D01*
X10339Y-42016D01*
X10378Y-41940D01*
X10416Y-41902D01*
X10492Y-41864D01*
X11101Y-42588D02*
X11140Y-42626D01*
X11101Y-42664D01*
X11063Y-42626D01*
X11101Y-42588D01*
X11101Y-42664D01*
X11635Y-41864D02*
X11711Y-41864D01*
X11787Y-41902D01*
X11825Y-41940D01*
X11863Y-42016D01*
X11902Y-42169D01*
X11902Y-42359D01*
X11863Y-42511D01*
X11825Y-42588D01*
X11787Y-42626D01*
X11711Y-42664D01*
X11635Y-42664D01*
X11559Y-42626D01*
X11521Y-42588D01*
X11482Y-42511D01*
X11444Y-42359D01*
X11444Y-42169D01*
X11482Y-42016D01*
X11521Y-41940D01*
X11559Y-41902D01*
X11635Y-41864D01*
X12664Y-42664D02*
X12206Y-42664D01*
X12435Y-42664D02*
X12435Y-41864D01*
X12359Y-41978D01*
X12283Y-42054D01*
X12206Y-42092D01*
X12930Y-41864D02*
X13426Y-41864D01*
X13159Y-42169D01*
X13273Y-42169D01*
X13349Y-42207D01*
X13387Y-42245D01*
X13426Y-42321D01*
X13426Y-42511D01*
X13387Y-42588D01*
X13349Y-42626D01*
X13273Y-42664D01*
X13045Y-42664D01*
X12968Y-42626D01*
X12930Y-42588D01*
X13730Y-41864D02*
X13730Y-42016D01*
X14035Y-41864D02*
X14035Y-42016D01*
X15560Y-41826D02*
X14874Y-42854D01*
X16589Y-41864D02*
X16665Y-41864D01*
X16741Y-41902D01*
X16779Y-41940D01*
X16817Y-42016D01*
X16856Y-42169D01*
X16856Y-42359D01*
X16817Y-42511D01*
X16779Y-42588D01*
X16741Y-42626D01*
X16665Y-42664D01*
X16589Y-42664D01*
X16513Y-42626D01*
X16475Y-42588D01*
X16436Y-42511D01*
X16398Y-42359D01*
X16398Y-42169D01*
X16436Y-42016D01*
X16475Y-41940D01*
X16513Y-41902D01*
X16589Y-41864D01*
X17198Y-42588D02*
X17237Y-42626D01*
X17198Y-42664D01*
X17160Y-42626D01*
X17198Y-42588D01*
X17198Y-42664D01*
X17503Y-41864D02*
X17999Y-41864D01*
X17732Y-42169D01*
X17846Y-42169D01*
X17922Y-42207D01*
X17960Y-42245D01*
X17999Y-42321D01*
X17999Y-42511D01*
X17960Y-42588D01*
X17922Y-42626D01*
X17846Y-42664D01*
X17618Y-42664D01*
X17541Y-42626D01*
X17503Y-42588D01*
X18265Y-41864D02*
X18761Y-41864D01*
X18494Y-42169D01*
X18608Y-42169D01*
X18684Y-42207D01*
X18722Y-42245D01*
X18761Y-42321D01*
X18761Y-42511D01*
X18722Y-42588D01*
X18684Y-42626D01*
X18608Y-42664D01*
X18380Y-42664D01*
X18303Y-42626D01*
X18265Y-42588D01*
X19103Y-42664D02*
X19103Y-42130D01*
X19103Y-42207D02*
X19142Y-42169D01*
X19218Y-42130D01*
X19332Y-42130D01*
X19408Y-42169D01*
X19446Y-42245D01*
X19446Y-42664D01*
X19446Y-42245D02*
X19484Y-42169D01*
X19561Y-42130D01*
X19675Y-42130D01*
X19751Y-42169D01*
X19789Y-42245D01*
X19789Y-42664D01*
X20170Y-42664D02*
X20170Y-42130D01*
X20170Y-42207D02*
X20209Y-42169D01*
X20285Y-42130D01*
X20399Y-42130D01*
X20475Y-42169D01*
X20513Y-42245D01*
X20513Y-42664D01*
X20513Y-42245D02*
X20551Y-42169D01*
X20628Y-42130D01*
X20742Y-42130D01*
X20818Y-42169D01*
X20856Y-42245D01*
X20856Y-42664D01*
X22076Y-42969D02*
X22038Y-42930D01*
X21962Y-42816D01*
X21924Y-42740D01*
X21886Y-42626D01*
X21847Y-42435D01*
X21847Y-42283D01*
X21886Y-42092D01*
X21924Y-41978D01*
X21962Y-41902D01*
X22038Y-41788D01*
X22076Y-41750D01*
X22800Y-42664D02*
X22342Y-42664D01*
X22571Y-42664D02*
X22571Y-41864D01*
X22495Y-41978D01*
X22419Y-42054D01*
X22342Y-42092D01*
X23257Y-42207D02*
X23181Y-42169D01*
X23142Y-42130D01*
X23104Y-42054D01*
X23104Y-42016D01*
X23142Y-41940D01*
X23181Y-41902D01*
X23257Y-41864D01*
X23409Y-41864D01*
X23485Y-41902D01*
X23523Y-41940D01*
X23562Y-42016D01*
X23562Y-42054D01*
X23523Y-42130D01*
X23485Y-42169D01*
X23409Y-42207D01*
X23257Y-42207D01*
X23181Y-42245D01*
X23142Y-42283D01*
X23104Y-42359D01*
X23104Y-42511D01*
X23142Y-42588D01*
X23181Y-42626D01*
X23257Y-42664D01*
X23409Y-42664D01*
X23485Y-42626D01*
X23523Y-42588D01*
X23562Y-42511D01*
X23562Y-42359D01*
X23523Y-42283D01*
X23485Y-42245D01*
X23409Y-42207D01*
X24514Y-42664D02*
X24514Y-41864D01*
X24857Y-42664D02*
X24857Y-42245D01*
X24819Y-42169D01*
X24743Y-42130D01*
X24629Y-42130D01*
X24553Y-42169D01*
X24514Y-42207D01*
X25353Y-42664D02*
X25277Y-42626D01*
X25238Y-42588D01*
X25200Y-42511D01*
X25200Y-42283D01*
X25238Y-42207D01*
X25277Y-42169D01*
X25353Y-42130D01*
X25467Y-42130D01*
X25543Y-42169D01*
X25581Y-42207D01*
X25619Y-42283D01*
X25619Y-42511D01*
X25581Y-42588D01*
X25543Y-42626D01*
X25467Y-42664D01*
X25353Y-42664D01*
X26077Y-42664D02*
X26001Y-42626D01*
X25962Y-42550D01*
X25962Y-41864D01*
X26686Y-42626D02*
X26610Y-42664D01*
X26458Y-42664D01*
X26381Y-42626D01*
X26343Y-42550D01*
X26343Y-42245D01*
X26381Y-42169D01*
X26458Y-42130D01*
X26610Y-42130D01*
X26686Y-42169D01*
X26724Y-42245D01*
X26724Y-42321D01*
X26343Y-42397D01*
X27029Y-42626D02*
X27106Y-42664D01*
X27258Y-42664D01*
X27334Y-42626D01*
X27372Y-42550D01*
X27372Y-42511D01*
X27334Y-42435D01*
X27258Y-42397D01*
X27144Y-42397D01*
X27067Y-42359D01*
X27029Y-42283D01*
X27029Y-42245D01*
X27067Y-42169D01*
X27144Y-42130D01*
X27258Y-42130D01*
X27334Y-42169D01*
X27639Y-42969D02*
X27677Y-42930D01*
X27754Y-42816D01*
X27792Y-42740D01*
X27830Y-42626D01*
X27868Y-42435D01*
X27868Y-42283D01*
X27830Y-42092D01*
X27792Y-41978D01*
X27754Y-41902D01*
X27677Y-41788D01*
X27639Y-41750D01*
G54D10*
X09949Y-43396D02*
X09947Y-43415D01*
X09941Y-43434D01*
X09932Y-43451D01*
X09919Y-43466D01*
X09904Y-43478D01*
X09887Y-43488D01*
X09869Y-43493D01*
X09849Y-43495D01*
X09831Y-43494D01*
X09812Y-43488D01*
X09795Y-43479D01*
X09780Y-43467D01*
X09767Y-43452D01*
X09758Y-43435D01*
X09752Y-43416D01*
X09750Y-43397D01*
X09751Y-43378D01*
X09757Y-43360D01*
X09765Y-43342D01*
X09778Y-43327D01*
X09792Y-43314D01*
X09809Y-43305D01*
X09828Y-43299D01*
X09847Y-43297D01*
X09866Y-43298D01*
X09885Y-43303D01*
X09902Y-43312D01*
X09917Y-43324D01*
X09930Y-43339D01*
X09940Y-43356D01*
X09946Y-43374D01*
X09948Y-43394D01*
X09949Y-43396D01*
G54D13*
X10492Y-42920D02*
X10568Y-42920D01*
X10644Y-42958D01*
X10682Y-42996D01*
X10720Y-43072D01*
X10759Y-43225D01*
X10759Y-43415D01*
X10720Y-43567D01*
X10682Y-43644D01*
X10644Y-43682D01*
X10568Y-43720D01*
X10492Y-43720D01*
X10416Y-43682D01*
X10378Y-43644D01*
X10339Y-43567D01*
X10301Y-43415D01*
X10301Y-43225D01*
X10339Y-43072D01*
X10378Y-42996D01*
X10416Y-42958D01*
X10492Y-42920D01*
X11101Y-43644D02*
X11140Y-43682D01*
X11101Y-43720D01*
X11063Y-43682D01*
X11101Y-43644D01*
X11101Y-43720D01*
X11635Y-42920D02*
X11711Y-42920D01*
X11787Y-42958D01*
X11825Y-42996D01*
X11863Y-43072D01*
X11902Y-43225D01*
X11902Y-43415D01*
X11863Y-43567D01*
X11825Y-43644D01*
X11787Y-43682D01*
X11711Y-43720D01*
X11635Y-43720D01*
X11559Y-43682D01*
X11521Y-43644D01*
X11482Y-43567D01*
X11444Y-43415D01*
X11444Y-43225D01*
X11482Y-43072D01*
X11521Y-42996D01*
X11559Y-42958D01*
X11635Y-42920D01*
X12206Y-42996D02*
X12244Y-42958D01*
X12321Y-42920D01*
X12511Y-42920D01*
X12587Y-42958D01*
X12625Y-42996D01*
X12664Y-43072D01*
X12664Y-43148D01*
X12625Y-43263D01*
X12168Y-43720D01*
X12664Y-43720D01*
X13159Y-42920D02*
X13235Y-42920D01*
X13311Y-42958D01*
X13349Y-42996D01*
X13387Y-43072D01*
X13426Y-43225D01*
X13426Y-43415D01*
X13387Y-43567D01*
X13349Y-43644D01*
X13311Y-43682D01*
X13235Y-43720D01*
X13159Y-43720D01*
X13083Y-43682D01*
X13045Y-43644D01*
X13006Y-43567D01*
X12968Y-43415D01*
X12968Y-43225D01*
X13006Y-43072D01*
X13045Y-42996D01*
X13083Y-42958D01*
X13159Y-42920D01*
X13730Y-42920D02*
X13730Y-43072D01*
X14035Y-42920D02*
X14035Y-43072D01*
X15560Y-42882D02*
X14874Y-43910D01*
X16589Y-42920D02*
X16665Y-42920D01*
X16741Y-42958D01*
X16779Y-42996D01*
X16817Y-43072D01*
X16856Y-43225D01*
X16856Y-43415D01*
X16817Y-43567D01*
X16779Y-43644D01*
X16741Y-43682D01*
X16665Y-43720D01*
X16589Y-43720D01*
X16513Y-43682D01*
X16475Y-43644D01*
X16436Y-43567D01*
X16398Y-43415D01*
X16398Y-43225D01*
X16436Y-43072D01*
X16475Y-42996D01*
X16513Y-42958D01*
X16589Y-42920D01*
X17198Y-43644D02*
X17237Y-43682D01*
X17198Y-43720D01*
X17160Y-43682D01*
X17198Y-43644D01*
X17198Y-43720D01*
X17960Y-42920D02*
X17579Y-42920D01*
X17541Y-43301D01*
X17579Y-43263D01*
X17656Y-43225D01*
X17846Y-43225D01*
X17922Y-43263D01*
X17960Y-43301D01*
X17999Y-43377D01*
X17999Y-43567D01*
X17960Y-43644D01*
X17922Y-43682D01*
X17846Y-43720D01*
X17656Y-43720D01*
X17579Y-43682D01*
X17541Y-43644D01*
X18761Y-43720D02*
X18303Y-43720D01*
X18532Y-43720D02*
X18532Y-42920D01*
X18456Y-43034D01*
X18380Y-43110D01*
X18303Y-43148D01*
X19103Y-43720D02*
X19103Y-43186D01*
X19103Y-43263D02*
X19142Y-43225D01*
X19218Y-43186D01*
X19332Y-43186D01*
X19408Y-43225D01*
X19446Y-43301D01*
X19446Y-43720D01*
X19446Y-43301D02*
X19484Y-43225D01*
X19561Y-43186D01*
X19675Y-43186D01*
X19751Y-43225D01*
X19789Y-43301D01*
X19789Y-43720D01*
X20170Y-43720D02*
X20170Y-43186D01*
X20170Y-43263D02*
X20209Y-43225D01*
X20285Y-43186D01*
X20399Y-43186D01*
X20475Y-43225D01*
X20513Y-43301D01*
X20513Y-43720D01*
X20513Y-43301D02*
X20551Y-43225D01*
X20628Y-43186D01*
X20742Y-43186D01*
X20818Y-43225D01*
X20856Y-43301D01*
X20856Y-43720D01*
X22076Y-44025D02*
X22038Y-43986D01*
X21962Y-43872D01*
X21924Y-43796D01*
X21886Y-43682D01*
X21847Y-43491D01*
X21847Y-43339D01*
X21886Y-43148D01*
X21924Y-43034D01*
X21962Y-42958D01*
X22038Y-42844D01*
X22076Y-42806D01*
X22761Y-42920D02*
X22380Y-42920D01*
X22342Y-43301D01*
X22380Y-43263D01*
X22457Y-43225D01*
X22647Y-43225D01*
X22723Y-43263D01*
X22761Y-43301D01*
X22800Y-43377D01*
X22800Y-43567D01*
X22761Y-43644D01*
X22723Y-43682D01*
X22647Y-43720D01*
X22457Y-43720D01*
X22380Y-43682D01*
X22342Y-43644D01*
X23752Y-43720D02*
X23752Y-42920D01*
X24095Y-43720D02*
X24095Y-43301D01*
X24057Y-43225D01*
X23981Y-43186D01*
X23867Y-43186D01*
X23791Y-43225D01*
X23752Y-43263D01*
X24591Y-43720D02*
X24515Y-43682D01*
X24476Y-43644D01*
X24438Y-43567D01*
X24438Y-43339D01*
X24476Y-43263D01*
X24515Y-43225D01*
X24591Y-43186D01*
X24705Y-43186D01*
X24781Y-43225D01*
X24819Y-43263D01*
X24857Y-43339D01*
X24857Y-43567D01*
X24819Y-43644D01*
X24781Y-43682D01*
X24705Y-43720D01*
X24591Y-43720D01*
X25315Y-43720D02*
X25239Y-43682D01*
X25200Y-43606D01*
X25200Y-42920D01*
X25924Y-43682D02*
X25848Y-43720D01*
X25696Y-43720D01*
X25619Y-43682D01*
X25581Y-43606D01*
X25581Y-43301D01*
X25619Y-43225D01*
X25696Y-43186D01*
X25848Y-43186D01*
X25924Y-43225D01*
X25962Y-43301D01*
X25962Y-43377D01*
X25581Y-43453D01*
X26267Y-43682D02*
X26344Y-43720D01*
X26496Y-43720D01*
X26572Y-43682D01*
X26610Y-43606D01*
X26610Y-43567D01*
X26572Y-43491D01*
X26496Y-43453D01*
X26382Y-43453D01*
X26305Y-43415D01*
X26267Y-43339D01*
X26267Y-43301D01*
X26305Y-43225D01*
X26382Y-43186D01*
X26496Y-43186D01*
X26572Y-43225D01*
X26877Y-44025D02*
X26915Y-43986D01*
X26992Y-43872D01*
X27030Y-43796D01*
X27068Y-43682D01*
X27106Y-43491D01*
X27106Y-43339D01*
X27068Y-43148D01*
X27030Y-43034D01*
X26992Y-42958D01*
X26915Y-42844D01*
X26877Y-42806D01*
X09789Y-44292D02*
X09789Y-44612D01*
X09949Y-44452D02*
X09629Y-44452D01*
X10492Y-43976D02*
X10568Y-43976D01*
X10644Y-44014D01*
X10682Y-44052D01*
X10720Y-44128D01*
X10759Y-44281D01*
X10759Y-44471D01*
X10720Y-44623D01*
X10682Y-44700D01*
X10644Y-44738D01*
X10568Y-44776D01*
X10492Y-44776D01*
X10416Y-44738D01*
X10378Y-44700D01*
X10339Y-44623D01*
X10301Y-44471D01*
X10301Y-44281D01*
X10339Y-44128D01*
X10378Y-44052D01*
X10416Y-44014D01*
X10492Y-43976D01*
X11101Y-44700D02*
X11140Y-44738D01*
X11101Y-44776D01*
X11063Y-44738D01*
X11101Y-44700D01*
X11101Y-44776D01*
X11635Y-43976D02*
X11711Y-43976D01*
X11787Y-44014D01*
X11825Y-44052D01*
X11863Y-44128D01*
X11902Y-44281D01*
X11902Y-44471D01*
X11863Y-44623D01*
X11825Y-44700D01*
X11787Y-44738D01*
X11711Y-44776D01*
X11635Y-44776D01*
X11559Y-44738D01*
X11521Y-44700D01*
X11482Y-44623D01*
X11444Y-44471D01*
X11444Y-44281D01*
X11482Y-44128D01*
X11521Y-44052D01*
X11559Y-44014D01*
X11635Y-43976D01*
X12168Y-43976D02*
X12664Y-43976D01*
X12397Y-44281D01*
X12511Y-44281D01*
X12587Y-44319D01*
X12625Y-44357D01*
X12664Y-44433D01*
X12664Y-44623D01*
X12625Y-44700D01*
X12587Y-44738D01*
X12511Y-44776D01*
X12283Y-44776D01*
X12206Y-44738D01*
X12168Y-44700D01*
X12968Y-44052D02*
X13006Y-44014D01*
X13083Y-43976D01*
X13273Y-43976D01*
X13349Y-44014D01*
X13387Y-44052D01*
X13426Y-44128D01*
X13426Y-44204D01*
X13387Y-44319D01*
X12930Y-44776D01*
X13426Y-44776D01*
X13730Y-43976D02*
X13730Y-44128D01*
X14035Y-43976D02*
X14035Y-44128D01*
X15560Y-43938D02*
X14874Y-44966D01*
X16589Y-43976D02*
X16665Y-43976D01*
X16741Y-44014D01*
X16779Y-44052D01*
X16817Y-44128D01*
X16856Y-44281D01*
X16856Y-44471D01*
X16817Y-44623D01*
X16779Y-44700D01*
X16741Y-44738D01*
X16665Y-44776D01*
X16589Y-44776D01*
X16513Y-44738D01*
X16475Y-44700D01*
X16436Y-44623D01*
X16398Y-44471D01*
X16398Y-44281D01*
X16436Y-44128D01*
X16475Y-44052D01*
X16513Y-44014D01*
X16589Y-43976D01*
X17198Y-44700D02*
X17237Y-44738D01*
X17198Y-44776D01*
X17160Y-44738D01*
X17198Y-44700D01*
X17198Y-44776D01*
X17694Y-44319D02*
X17618Y-44281D01*
X17579Y-44242D01*
X17541Y-44166D01*
X17541Y-44128D01*
X17579Y-44052D01*
X17618Y-44014D01*
X17694Y-43976D01*
X17846Y-43976D01*
X17922Y-44014D01*
X17960Y-44052D01*
X17999Y-44128D01*
X17999Y-44166D01*
X17960Y-44242D01*
X17922Y-44281D01*
X17846Y-44319D01*
X17694Y-44319D01*
X17618Y-44357D01*
X17579Y-44395D01*
X17541Y-44471D01*
X17541Y-44623D01*
X17579Y-44700D01*
X17618Y-44738D01*
X17694Y-44776D01*
X17846Y-44776D01*
X17922Y-44738D01*
X17960Y-44700D01*
X17999Y-44623D01*
X17999Y-44471D01*
X17960Y-44395D01*
X17922Y-44357D01*
X17846Y-44319D01*
X18761Y-44776D02*
X18303Y-44776D01*
X18532Y-44776D02*
X18532Y-43976D01*
X18456Y-44090D01*
X18380Y-44166D01*
X18303Y-44204D01*
X19103Y-44776D02*
X19103Y-44242D01*
X19103Y-44319D02*
X19142Y-44281D01*
X19218Y-44242D01*
X19332Y-44242D01*
X19408Y-44281D01*
X19446Y-44357D01*
X19446Y-44776D01*
X19446Y-44357D02*
X19484Y-44281D01*
X19561Y-44242D01*
X19675Y-44242D01*
X19751Y-44281D01*
X19789Y-44357D01*
X19789Y-44776D01*
X20170Y-44776D02*
X20170Y-44242D01*
X20170Y-44319D02*
X20209Y-44281D01*
X20285Y-44242D01*
X20399Y-44242D01*
X20475Y-44281D01*
X20513Y-44357D01*
X20513Y-44776D01*
X20513Y-44357D02*
X20551Y-44281D01*
X20628Y-44242D01*
X20742Y-44242D01*
X20818Y-44281D01*
X20856Y-44357D01*
X20856Y-44776D01*
X22076Y-45081D02*
X22038Y-45042D01*
X21962Y-44928D01*
X21924Y-44852D01*
X21886Y-44738D01*
X21847Y-44547D01*
X21847Y-44395D01*
X21886Y-44204D01*
X21924Y-44090D01*
X21962Y-44014D01*
X22038Y-43900D01*
X22076Y-43862D01*
X22723Y-43976D02*
X22571Y-43976D01*
X22495Y-44014D01*
X22457Y-44052D01*
X22380Y-44166D01*
X22342Y-44319D01*
X22342Y-44623D01*
X22380Y-44700D01*
X22419Y-44738D01*
X22495Y-44776D01*
X22647Y-44776D01*
X22723Y-44738D01*
X22761Y-44700D01*
X22800Y-44623D01*
X22800Y-44433D01*
X22761Y-44357D01*
X22723Y-44319D01*
X22647Y-44281D01*
X22495Y-44281D01*
X22419Y-44319D01*
X22380Y-44357D01*
X22342Y-44433D01*
X23752Y-44776D02*
X23752Y-43976D01*
X24095Y-44776D02*
X24095Y-44357D01*
X24057Y-44281D01*
X23981Y-44242D01*
X23867Y-44242D01*
X23791Y-44281D01*
X23752Y-44319D01*
X24591Y-44776D02*
X24515Y-44738D01*
X24476Y-44700D01*
X24438Y-44623D01*
X24438Y-44395D01*
X24476Y-44319D01*
X24515Y-44281D01*
X24591Y-44242D01*
X24705Y-44242D01*
X24781Y-44281D01*
X24819Y-44319D01*
X24857Y-44395D01*
X24857Y-44623D01*
X24819Y-44700D01*
X24781Y-44738D01*
X24705Y-44776D01*
X24591Y-44776D01*
X25315Y-44776D02*
X25239Y-44738D01*
X25200Y-44662D01*
X25200Y-43976D01*
X25924Y-44738D02*
X25848Y-44776D01*
X25696Y-44776D01*
X25619Y-44738D01*
X25581Y-44662D01*
X25581Y-44357D01*
X25619Y-44281D01*
X25696Y-44242D01*
X25848Y-44242D01*
X25924Y-44281D01*
X25962Y-44357D01*
X25962Y-44433D01*
X25581Y-44509D01*
X26267Y-44738D02*
X26344Y-44776D01*
X26496Y-44776D01*
X26572Y-44738D01*
X26610Y-44662D01*
X26610Y-44623D01*
X26572Y-44547D01*
X26496Y-44509D01*
X26382Y-44509D01*
X26305Y-44471D01*
X26267Y-44395D01*
X26267Y-44357D01*
X26305Y-44281D01*
X26382Y-44242D01*
X26496Y-44242D01*
X26572Y-44281D01*
X26877Y-45081D02*
X26915Y-45042D01*
X26992Y-44928D01*
X27030Y-44852D01*
X27068Y-44738D01*
X27106Y-44547D01*
X27106Y-44395D01*
X27068Y-44204D01*
X27030Y-44090D01*
X26992Y-44014D01*
X26915Y-43900D01*
X26877Y-43862D01*
G54D10*
X09949Y-45508D02*
X09935Y-45641D01*
X09897Y-45770D01*
X09833Y-45889D01*
X09748Y-45993D01*
X09645Y-46079D01*
X09526Y-46143D01*
X09398Y-46182D01*
X09264Y-46196D01*
X09131Y-46184D01*
X09002Y-46146D01*
X08883Y-46084D01*
X08778Y-46000D01*
X08692Y-45897D01*
X08627Y-45779D01*
X08587Y-45651D01*
X08572Y-45517D01*
X08583Y-45384D01*
X08620Y-45255D01*
X08681Y-45135D01*
X08765Y-45030D01*
X08867Y-44943D01*
X08985Y-44877D01*
X09113Y-44836D01*
X09246Y-44820D01*
X09379Y-44830D01*
X09509Y-44866D01*
X09629Y-44927D01*
X09735Y-45010D01*
X09823Y-45111D01*
X09889Y-45228D01*
X09931Y-45356D01*
X09948Y-45489D01*
X09949Y-45508D01*
X08571Y-44819D02*
X09949Y-46197D01*
X09949Y-44819D02*
X08571Y-46197D01*
G54D13*
X10492Y-45032D02*
X10568Y-45032D01*
X10644Y-45070D01*
X10682Y-45108D01*
X10720Y-45184D01*
X10759Y-45337D01*
X10759Y-45527D01*
X10720Y-45679D01*
X10682Y-45756D01*
X10644Y-45794D01*
X10568Y-45832D01*
X10492Y-45832D01*
X10416Y-45794D01*
X10378Y-45756D01*
X10339Y-45679D01*
X10301Y-45527D01*
X10301Y-45337D01*
X10339Y-45184D01*
X10378Y-45108D01*
X10416Y-45070D01*
X10492Y-45032D01*
X11101Y-45756D02*
X11140Y-45794D01*
X11101Y-45832D01*
X11063Y-45794D01*
X11101Y-45756D01*
X11101Y-45832D01*
X11902Y-45832D02*
X11444Y-45832D01*
X11673Y-45832D02*
X11673Y-45032D01*
X11597Y-45146D01*
X11521Y-45222D01*
X11444Y-45260D01*
X12168Y-45032D02*
X12664Y-45032D01*
X12397Y-45337D01*
X12511Y-45337D01*
X12587Y-45375D01*
X12625Y-45413D01*
X12664Y-45489D01*
X12664Y-45679D01*
X12625Y-45756D01*
X12587Y-45794D01*
X12511Y-45832D01*
X12283Y-45832D01*
X12206Y-45794D01*
X12168Y-45756D01*
X13121Y-45375D02*
X13045Y-45337D01*
X13006Y-45298D01*
X12968Y-45222D01*
X12968Y-45184D01*
X13006Y-45108D01*
X13045Y-45070D01*
X13121Y-45032D01*
X13273Y-45032D01*
X13349Y-45070D01*
X13387Y-45108D01*
X13426Y-45184D01*
X13426Y-45222D01*
X13387Y-45298D01*
X13349Y-45337D01*
X13273Y-45375D01*
X13121Y-45375D01*
X13045Y-45413D01*
X13006Y-45451D01*
X12968Y-45527D01*
X12968Y-45679D01*
X13006Y-45756D01*
X13045Y-45794D01*
X13121Y-45832D01*
X13273Y-45832D01*
X13349Y-45794D01*
X13387Y-45756D01*
X13426Y-45679D01*
X13426Y-45527D01*
X13387Y-45451D01*
X13349Y-45413D01*
X13273Y-45375D01*
X13730Y-45032D02*
X13730Y-45184D01*
X14035Y-45032D02*
X14035Y-45184D01*
X15560Y-44994D02*
X14874Y-46022D01*
X16360Y-45032D02*
X16856Y-45032D01*
X16589Y-45337D01*
X16703Y-45337D01*
X16779Y-45375D01*
X16817Y-45413D01*
X16856Y-45489D01*
X16856Y-45679D01*
X16817Y-45756D01*
X16779Y-45794D01*
X16703Y-45832D01*
X16475Y-45832D01*
X16398Y-45794D01*
X16360Y-45756D01*
X17198Y-45756D02*
X17237Y-45794D01*
X17198Y-45832D01*
X17160Y-45794D01*
X17198Y-45756D01*
X17198Y-45832D01*
X17960Y-45032D02*
X17579Y-45032D01*
X17541Y-45413D01*
X17579Y-45375D01*
X17656Y-45337D01*
X17846Y-45337D01*
X17922Y-45375D01*
X17960Y-45413D01*
X17999Y-45489D01*
X17999Y-45679D01*
X17960Y-45756D01*
X17922Y-45794D01*
X17846Y-45832D01*
X17656Y-45832D01*
X17579Y-45794D01*
X17541Y-45756D01*
X18494Y-45032D02*
X18570Y-45032D01*
X18646Y-45070D01*
X18684Y-45108D01*
X18722Y-45184D01*
X18761Y-45337D01*
X18761Y-45527D01*
X18722Y-45679D01*
X18684Y-45756D01*
X18646Y-45794D01*
X18570Y-45832D01*
X18494Y-45832D01*
X18418Y-45794D01*
X18380Y-45756D01*
X18341Y-45679D01*
X18303Y-45527D01*
X18303Y-45337D01*
X18341Y-45184D01*
X18380Y-45108D01*
X18418Y-45070D01*
X18494Y-45032D01*
X19103Y-45832D02*
X19103Y-45298D01*
X19103Y-45375D02*
X19142Y-45337D01*
X19218Y-45298D01*
X19332Y-45298D01*
X19408Y-45337D01*
X19446Y-45413D01*
X19446Y-45832D01*
X19446Y-45413D02*
X19484Y-45337D01*
X19561Y-45298D01*
X19675Y-45298D01*
X19751Y-45337D01*
X19789Y-45413D01*
X19789Y-45832D01*
X20170Y-45832D02*
X20170Y-45298D01*
X20170Y-45375D02*
X20209Y-45337D01*
X20285Y-45298D01*
X20399Y-45298D01*
X20475Y-45337D01*
X20513Y-45413D01*
X20513Y-45832D01*
X20513Y-45413D02*
X20551Y-45337D01*
X20628Y-45298D01*
X20742Y-45298D01*
X20818Y-45337D01*
X20856Y-45413D01*
X20856Y-45832D01*
X22076Y-46137D02*
X22038Y-46098D01*
X21962Y-45984D01*
X21924Y-45908D01*
X21886Y-45794D01*
X21847Y-45603D01*
X21847Y-45451D01*
X21886Y-45260D01*
X21924Y-45146D01*
X21962Y-45070D01*
X22038Y-44956D01*
X22076Y-44918D01*
X22723Y-45298D02*
X22723Y-45832D01*
X22533Y-44994D02*
X22342Y-45565D01*
X22838Y-45565D01*
X23752Y-45832D02*
X23752Y-45032D01*
X24095Y-45832D02*
X24095Y-45413D01*
X24057Y-45337D01*
X23981Y-45298D01*
X23867Y-45298D01*
X23791Y-45337D01*
X23752Y-45375D01*
X24591Y-45832D02*
X24515Y-45794D01*
X24476Y-45756D01*
X24438Y-45679D01*
X24438Y-45451D01*
X24476Y-45375D01*
X24515Y-45337D01*
X24591Y-45298D01*
X24705Y-45298D01*
X24781Y-45337D01*
X24819Y-45375D01*
X24857Y-45451D01*
X24857Y-45679D01*
X24819Y-45756D01*
X24781Y-45794D01*
X24705Y-45832D01*
X24591Y-45832D01*
X25315Y-45832D02*
X25239Y-45794D01*
X25200Y-45718D01*
X25200Y-45032D01*
X25924Y-45794D02*
X25848Y-45832D01*
X25696Y-45832D01*
X25619Y-45794D01*
X25581Y-45718D01*
X25581Y-45413D01*
X25619Y-45337D01*
X25696Y-45298D01*
X25848Y-45298D01*
X25924Y-45337D01*
X25962Y-45413D01*
X25962Y-45489D01*
X25581Y-45565D01*
X26267Y-45794D02*
X26344Y-45832D01*
X26496Y-45832D01*
X26572Y-45794D01*
X26610Y-45718D01*
X26610Y-45679D01*
X26572Y-45603D01*
X26496Y-45565D01*
X26382Y-45565D01*
X26305Y-45527D01*
X26267Y-45451D01*
X26267Y-45413D01*
X26305Y-45337D01*
X26382Y-45298D01*
X26496Y-45298D01*
X26572Y-45337D01*
X26877Y-46137D02*
X26915Y-46098D01*
X26992Y-45984D01*
X27030Y-45908D01*
X27068Y-45794D01*
X27106Y-45603D01*
X27106Y-45451D01*
X27068Y-45260D01*
X27030Y-45146D01*
X26992Y-45070D01*
X26915Y-44956D01*
X26877Y-44918D01*
M02*
