<?xml version="1.0" encoding="UTF-8" standalone="no"?>
<!-- Generator: Adobe Illustrator 15.0.2, SVG Export Plug-In . SVG Version: 6.00 Build 0)  -->

<svg
   xmlns:dc="http://purl.org/dc/elements/1.1/"
   xmlns:cc="http://creativecommons.org/ns#"
   xmlns:rdf="http://www.w3.org/1999/02/22-rdf-syntax-ns#"
   xmlns:svg="http://www.w3.org/2000/svg"
   xmlns="http://www.w3.org/2000/svg"
   xmlns:sodipodi="http://sodipodi.sourceforge.net/DTD/sodipodi-0.dtd"
   xmlns:inkscape="http://www.inkscape.org/namespaces/inkscape"
   version="1.1"
   x="0px"
   y="0px"
   width="556.59198"
   height="430.11301"
   viewBox="0 0 556.59195 430.113"
   enable-background="new 0 0 595.28 841.89"
   xml:space="preserve"
   id="svg2"
   inkscape:version="0.48.2 r9819"
   sodipodi:docname="E DIN 2137-2 Bild 1 korrigiert.svg"><metadata
   id="metadata201"><rdf:RDF><cc:Work
       rdf:about=""><dc:format>image/svg+xml</dc:format><dc:type
         rdf:resource="http://purl.org/dc/dcmitype/StillImage" /></cc:Work></rdf:RDF></metadata><defs
   id="defs199" /><sodipodi:namedview
   pagecolor="#ffffff"
   bordercolor="#666666"
   borderopacity="1"
   objecttolerance="10"
   gridtolerance="10"
   guidetolerance="10"
   inkscape:pageopacity="0"
   inkscape:pageshadow="2"
   inkscape:window-width="640"
   inkscape:window-height="480"
   id="namedview197"
   showgrid="false"
   fit-margin-top="0"
   fit-margin-left="0"
   fit-margin-right="0"
   fit-margin-bottom="0"
   inkscape:zoom="0.28032165"
   inkscape:cx="280.633"
   inkscape:cy="84.622001"
   inkscape:window-x="0"
   inkscape:window-y="0"
   inkscape:window-maximized="0"
   inkscape:current-layer="svg2" />
<g
   id="Tasten"
   transform="translate(-17.007009,-75.454)">
	<path
   stroke-miterlimit="10"
   d="m 181.417,225.355 c 0,3.913 -3.173,7.086 -7.086,7.086 H 131.81 c -3.913,0 -7.086,-3.173 -7.086,-7.086 v -42.521 c 0,-3.913 3.173,-7.086 7.086,-7.086 h 42.521 c 3.913,0 7.086,3.173 7.086,7.086 v 42.521 z"
   id="path5"
   inkscape:connector-curvature="0"
   style="fill:#ffffff;stroke:#000000;stroke-width:2;stroke-miterlimit:10;stroke-dasharray:4, 4" />
	<path
   stroke-miterlimit="10"
   d="m 249.449,225.354 c 0,3.913 -3.174,7.087 -7.087,7.087 h -42.52 c -3.914,0 -7.087,-3.174 -7.087,-7.087 v -42.52 c 0,-3.914 3.173,-7.086 7.087,-7.086 h 42.52 c 3.913,0 7.087,3.173 7.087,7.086 v 42.52 z"
   id="path7"
   inkscape:connector-curvature="0"
   style="fill:#ffffff;stroke:#000000;stroke-width:2;stroke-miterlimit:10;stroke-dasharray:4, 4" />
	<path
   stroke-miterlimit="10"
   d="m 317.48,225.354 c 0,3.914 -3.174,7.088 -7.087,7.088 h -42.52 c -3.914,0 -7.087,-3.174 -7.087,-7.088 v -42.52 c 0,-3.914 3.173,-7.087 7.087,-7.087 h 42.52 c 3.913,0 7.087,3.173 7.087,7.087 v 42.52 z"
   id="path9"
   inkscape:connector-curvature="0"
   style="fill:#ffffff;stroke:#000000;stroke-width:2;stroke-miterlimit:10;stroke-dasharray:4, 4" />
	<path
   stroke-miterlimit="10"
   d="m 385.513,225.354 c 0,3.914 -3.174,7.088 -7.088,7.088 h -42.52 c -3.914,0 -7.086,-3.174 -7.086,-7.088 v -42.52 c 0,-3.914 3.172,-7.087 7.086,-7.087 h 42.52 c 3.914,0 7.088,3.173 7.088,7.087 v 42.52 z"
   id="path11"
   inkscape:connector-curvature="0"
   style="fill:#ffffff;stroke:#000000;stroke-width:2;stroke-miterlimit:10;stroke-dasharray:4, 4" />
	<path
   stroke-miterlimit="10"
   d="m 113.386,225.354 c 0,3.914 -3.174,7.088 -7.086,7.088 H 63.779 c -3.913,0 -7.087,-3.174 -7.087,-7.088 v -42.52 c 0,-3.914 3.174,-7.086 7.087,-7.086 H 106.3 c 3.912,0 7.086,3.173 7.086,7.086 v 42.52 z"
   id="path13"
   inkscape:connector-curvature="0"
   style="fill:#ffffff;stroke:#000000;stroke-width:2;stroke-miterlimit:10;stroke-dasharray:4, 4" />
	<path
   stroke-miterlimit="10"
   d="m 215.434,293.385 c 0,3.914 -3.174,7.088 -7.087,7.088 h -42.521 c -3.913,0 -7.086,-3.174 -7.086,-7.088 v -42.52 c 0,-3.914 3.173,-7.086 7.086,-7.086 h 42.521 c 3.913,0 7.087,3.173 7.087,7.086 v 42.52 z"
   id="path15"
   inkscape:connector-curvature="0"
   style="fill:#ffffff;stroke:#000000;stroke-width:2;stroke-miterlimit:10;stroke-dasharray:4, 4" />
	<path
   stroke-miterlimit="10"
   d="m 283.465,293.385 c 0,3.914 -3.174,7.088 -7.087,7.088 h -42.52 c -3.914,0 -7.087,-3.174 -7.087,-7.088 v -42.52 c 0,-3.914 3.173,-7.086 7.087,-7.086 h 42.52 c 3.913,0 7.087,3.173 7.087,7.086 v 42.52 z"
   id="path17"
   inkscape:connector-curvature="0"
   style="fill:#ffffff;stroke:#000000;stroke-width:2;stroke-miterlimit:10;stroke-dasharray:4, 4" />
	<path
   stroke-miterlimit="10"
   d="m 351.496,293.385 c 0,3.914 -3.174,7.088 -7.087,7.088 h -42.52 c -3.914,0 -7.087,-3.174 -7.087,-7.088 v -42.52 c 0,-3.914 3.173,-7.086 7.087,-7.086 h 42.52 c 3.913,0 7.087,3.173 7.087,7.086 v 42.52 z"
   id="path19"
   inkscape:connector-curvature="0"
   style="fill:#ffffff;stroke:#000000;stroke-width:2;stroke-miterlimit:10;stroke-dasharray:4, 4" />
	<path
   stroke-miterlimit="10"
   d="m 419.527,293.385 c 0,3.914 -3.174,7.088 -7.087,7.088 h -42.52 c -3.913,0 -7.086,-3.174 -7.086,-7.088 v -42.52 c 0,-3.914 3.173,-7.086 7.086,-7.086 h 42.521 c 3.913,0 7.087,3.173 7.087,7.086 v 42.52 z"
   id="path21"
   inkscape:connector-curvature="0"
   style="fill:#ffffff;stroke:#000000;stroke-width:2;stroke-miterlimit:10;stroke-dasharray:4, 4" />
	<path
   stroke-miterlimit="10"
   d="m 147.402,293.386 c 0,3.914 -3.174,7.088 -7.087,7.088 h -42.52 c -3.913,0 -7.086,-3.174 -7.086,-7.088 v -42.52 c 0,-3.914 3.173,-7.086 7.086,-7.086 h 42.521 c 3.913,0 7.087,3.173 7.087,7.086 v 42.52 z"
   id="path23"
   inkscape:connector-curvature="0"
   style="fill:#ffffff;stroke:#000000;stroke-width:2;stroke-miterlimit:10;stroke-dasharray:4, 4" />
	<path
   stroke-miterlimit="10"
   d="m 232.441,361.417 c 0,3.914 -3.174,7.088 -7.087,7.088 h -42.521 c -3.913,0 -7.086,-3.174 -7.086,-7.088 v -42.52 c 0,-3.913 3.173,-7.086 7.086,-7.086 h 42.521 c 3.913,0 7.087,3.173 7.087,7.086 v 42.52 z"
   id="path25"
   inkscape:connector-curvature="0"
   style="fill:#ffffff;stroke:#000000;stroke-width:2;stroke-miterlimit:10;stroke-dasharray:4, 4" />
	<path
   stroke-miterlimit="10"
   d="m 300.473,361.417 c 0,3.914 -3.174,7.088 -7.087,7.088 h -42.52 c -3.914,0 -7.087,-3.174 -7.087,-7.088 v -42.52 c 0,-3.913 3.173,-7.086 7.087,-7.086 h 42.52 c 3.913,0 7.087,3.173 7.087,7.086 v 42.52 z"
   id="path27"
   inkscape:connector-curvature="0"
   style="fill:#ffffff;stroke:#000000;stroke-width:2;stroke-miterlimit:10;stroke-dasharray:4, 4" />
	<path
   stroke-miterlimit="10"
   d="m 368.504,361.417 c 0,3.914 -3.174,7.088 -7.087,7.088 h -42.52 c -3.914,0 -7.087,-3.174 -7.087,-7.088 v -42.52 c 0,-3.913 3.173,-7.086 7.087,-7.086 h 42.52 c 3.913,0 7.087,3.173 7.087,7.086 v 42.52 z"
   id="path29"
   inkscape:connector-curvature="0"
   style="fill:#ffffff;stroke:#000000;stroke-width:2;stroke-miterlimit:10;stroke-dasharray:4, 4" />
	<path
   stroke-miterlimit="10"
   d="m 436.535,361.417 c 0,3.914 -3.174,7.088 -7.087,7.088 h -42.52 c -3.914,0 -7.087,-3.174 -7.087,-7.088 v -42.52 c 0,-3.913 3.173,-7.086 7.087,-7.086 h 42.52 c 3.913,0 7.087,3.173 7.087,7.086 v 42.52 z"
   id="path31"
   inkscape:connector-curvature="0"
   style="fill:#ffffff;stroke:#000000;stroke-width:2;stroke-miterlimit:10;stroke-dasharray:4, 4" />
	<path
   stroke-miterlimit="10"
   d="m 164.41,361.417 c 0,3.914 -3.174,7.088 -7.087,7.088 h -42.52 c -3.914,0 -7.087,-3.174 -7.087,-7.088 v -42.52 c 0,-3.913 3.173,-7.086 7.087,-7.086 h 42.52 c 3.913,0 7.087,3.173 7.087,7.086 v 42.52 z"
   id="path33"
   inkscape:connector-curvature="0"
   style="fill:#ffffff;stroke:#000000;stroke-width:2;stroke-miterlimit:10;stroke-dasharray:4, 4" />
	<path
   stroke-miterlimit="10"
   d="m 266.457,429.448 c 0,3.914 -3.174,7.088 -7.087,7.088 h -42.52 c -3.914,0 -7.087,-3.174 -7.087,-7.088 v -42.52 c 0,-3.914 3.173,-7.086 7.087,-7.086 h 42.52 c 3.913,0 7.087,3.173 7.087,7.086 v 42.52 z"
   id="path35"
   inkscape:connector-curvature="0"
   style="fill:#ffffff;stroke:#000000;stroke-width:2;stroke-miterlimit:10;stroke-dasharray:4, 4" />
	<path
   stroke-miterlimit="10"
   d="m 334.488,429.448 c 0,3.914 -3.174,7.088 -7.087,7.088 h -42.52 c -3.914,0 -7.087,-3.174 -7.087,-7.088 v -42.52 c 0,-3.914 3.173,-7.086 7.087,-7.086 h 42.52 c 3.913,0 7.087,3.173 7.087,7.086 v 42.52 z"
   id="path37"
   inkscape:connector-curvature="0"
   style="fill:#ffffff;stroke:#000000;stroke-width:2;stroke-miterlimit:10;stroke-dasharray:4, 4" />
	<path
   stroke-miterlimit="10"
   d="m 402.52,429.448 c 0,3.914 -3.174,7.088 -7.087,7.088 h -42.521 c -3.913,0 -7.086,-3.174 -7.086,-7.088 v -42.52 c 0,-3.914 3.173,-7.086 7.086,-7.086 h 42.521 c 3.913,0 7.087,3.173 7.087,7.086 v 42.52 z"
   id="path39"
   inkscape:connector-curvature="0"
   style="fill:#ffffff;stroke:#000000;stroke-width:2;stroke-miterlimit:10;stroke-dasharray:4, 4" />
	<path
   stroke-miterlimit="10"
   d="m 470.552,429.448 c 0,3.914 -3.174,7.088 -7.087,7.088 h -42.521 c -3.913,0 -7.086,-3.174 -7.086,-7.088 v -42.52 c 0,-3.914 3.173,-7.086 7.086,-7.086 h 42.521 c 3.913,0 7.087,3.173 7.087,7.086 v 42.52 z"
   id="path41"
   inkscape:connector-curvature="0"
   style="fill:#ffffff;stroke:#000000;stroke-width:2;stroke-miterlimit:10;stroke-dasharray:4, 4" />
	<path
   stroke-miterlimit="10"
   d="m 198.426,429.448 c 0,3.914 -3.174,7.088 -7.087,7.088 h -42.521 c -3.913,0 -7.086,-3.174 -7.086,-7.088 v -42.52 c 0,-3.914 3.173,-7.086 7.086,-7.086 h 42.521 c 3.913,0 7.087,3.173 7.087,7.086 v 42.52 z"
   id="path43"
   inkscape:connector-curvature="0"
   style="fill:#ffffff;stroke:#000000;stroke-width:2;stroke-miterlimit:10;stroke-dasharray:4, 4" />
	<path
   stroke-miterlimit="10"
   d="m 232.441,497.479 c 0,3.914 -3.174,7.088 -7.087,7.088 h -42.521 c -3.913,0 -7.086,-3.174 -7.086,-7.088 v -42.52 c 0,-3.913 3.173,-7.086 7.086,-7.086 h 42.521 c 3.913,0 7.087,3.173 7.087,7.086 v 42.52 z"
   id="path45"
   inkscape:connector-curvature="0"
   style="fill:#ffffff;stroke:#000000;stroke-width:2;stroke-miterlimit:10;stroke-dasharray:4, 4" />
	<path
   stroke-miterlimit="10"
   d="m 164.41,497.479 c 0,3.914 -3.174,7.088 -7.087,7.088 h -42.521 c -3.913,0 -7.086,-3.174 -7.086,-7.088 v -42.52 c 0,-3.913 3.173,-7.086 7.086,-7.086 h 42.521 c 3.913,0 7.087,3.173 7.087,7.086 v 42.52 z"
   id="path47"
   inkscape:connector-curvature="0"
   style="fill:#ffffff;stroke:#000000;stroke-width:2;stroke-miterlimit:10;stroke-dasharray:4, 4" />
	<path
   stroke-miterlimit="10"
   d="m 572.599,497.48 c 0,3.914 -3.173,7.087 -7.087,7.087 H 250.866 c -3.914,0 -7.087,-3.173 -7.087,-7.087 v -42.52 c 0,-3.914 3.173,-7.087 7.087,-7.087 h 314.646 c 3.914,0 7.087,3.173 7.087,7.087 v 42.52 z"
   id="path49"
   inkscape:connector-curvature="0"
   style="fill:#ffffff;stroke:#000000;stroke-width:2;stroke-miterlimit:10;stroke-dasharray:4, 4" />
</g>
<g
   id="Striche"
   transform="translate(-17.007009,-75.454)">
	<rect
   x="83.622002"
   y="102.047"
   width="2.8340001"
   height="102.047"
   id="rect52" />
	<rect
   x="117.638"
   y="102.047"
   width="2.8340001"
   height="170.07899"
   id="rect54" />
	<rect
   x="253.701"
   y="102.047"
   width="2.8340001"
   height="170.07899"
   id="rect56" />
	<rect
   x="270.70999"
   y="102.047"
   width="2.8340001"
   height="238.11"
   id="rect58" />
	<rect
   x="406.771"
   y="102.047"
   width="2.835"
   height="238.11"
   id="rect60" />
	<rect
   x="440.78699"
   y="102.047"
   width="2.835"
   height="306.142"
   id="rect62" />
</g>
<g
   id="Pfeil"
   transform="translate(-17.007009,-75.454)">
	<g
   id="g65">
		<g
   id="g67">
			
				<line
   stroke-miterlimit="10"
   x1="62.362"
   y1="124.725"
   x2="77.796997"
   y2="124.725"
   id="line69"
   style="fill:none;stroke:#000000;stroke-width:2;stroke-miterlimit:10" />
			<g
   id="g71">
				<path
   d="m 85.04,124.725 c -3.408,1.265 -7.636,3.422 -10.257,5.707 l 2.064,-5.707 -2.064,-5.706 c 2.621,2.285 6.849,4.442 10.257,5.706 z"
   id="path73"
   inkscape:connector-curvature="0" />
			</g>
		</g>
	</g>
	<g
   id="g75">
		<g
   id="g77">
			
				<line
   stroke-miterlimit="10"
   x1="232.44"
   y1="124.725"
   x2="247.87601"
   y2="124.725"
   id="line79"
   style="fill:none;stroke:#000000;stroke-width:2;stroke-miterlimit:10" />
			<g
   id="g81">
				<path
   d="m 255.118,124.725 c -3.408,1.265 -7.636,3.422 -10.257,5.707 l 2.064,-5.707 -2.064,-5.706 c 2.621,2.285 6.849,4.442 10.257,5.706 z"
   id="path83"
   inkscape:connector-curvature="0" />
			</g>
		</g>
	</g>
	<g
   id="g85">
		<g
   id="g87">
			
				<line
   stroke-miterlimit="10"
   x1="385.51199"
   y1="124.725"
   x2="400.94699"
   y2="124.725"
   id="line89"
   style="fill:none;stroke:#000000;stroke-width:2;stroke-miterlimit:10" />
			<g
   id="g91">
				<path
   d="m 408.189,124.725 c -3.408,1.265 -7.636,3.422 -10.257,5.707 l 2.064,-5.707 -2.064,-5.706 c 2.622,2.285 6.849,4.442 10.257,5.706 z"
   id="path93"
   inkscape:connector-curvature="0" />
			</g>
		</g>
	</g>
	<g
   id="g95">
		<g
   id="g97">
			
				<line
   stroke-miterlimit="10"
   x1="126.297"
   y1="124.725"
   x2="141.73199"
   y2="124.725"
   id="line99"
   style="fill:none;stroke:#000000;stroke-width:2;stroke-miterlimit:10" />
			<g
   id="g101">
				<path
   d="m 119.055,124.725 c 3.408,1.265 7.636,3.422 10.257,5.707 l -2.064,-5.707 2.064,-5.706 c -2.621,2.285 -6.849,4.442 -10.257,5.706 z"
   id="path103"
   inkscape:connector-curvature="0" />
			</g>
		</g>
	</g>
	<g
   id="g105">
		<g
   id="g107">
			
				<line
   stroke-miterlimit="10"
   x1="279.36801"
   y1="124.725"
   x2="294.80399"
   y2="124.725"
   id="line109"
   style="fill:none;stroke:#000000;stroke-width:2;stroke-miterlimit:10" />
			<g
   id="g111">
				<path
   d="m 272.126,124.725 c 3.408,1.265 7.636,3.422 10.257,5.707 l -2.064,-5.707 2.064,-5.706 c -2.621,2.285 -6.849,4.442 -10.257,5.706 z"
   id="path113"
   inkscape:connector-curvature="0" />
			</g>
		</g>
	</g>
	<g
   id="g115">
		<g
   id="g117">
			
				<line
   stroke-miterlimit="10"
   x1="449.44699"
   y1="124.725"
   x2="464.88199"
   y2="124.725"
   id="line119"
   style="fill:none;stroke:#000000;stroke-width:2;stroke-miterlimit:10" />
			<g
   id="g121">
				<path
   d="m 442.205,124.725 c 3.408,1.265 7.636,3.422 10.257,5.707 l -2.064,-5.707 2.064,-5.706 c -2.621,2.285 -6.849,4.442 -10.257,5.706 z"
   id="path123"
   inkscape:connector-curvature="0" />
			</g>
		</g>
	</g>
</g>
<g
   id="Schrift"
   transform="translate(-17.007009,-75.454)">
	<g
   id="g126">
		<path
   d="m 17.008,191.28 h 16.378 v 3.672 h -12.49 v 7.307 H 31.55 v 3.456 H 20.896 v 7.523 h 12.49 v 3.671 H 17.008 V 191.28 z"
   id="path128"
   inkscape:connector-curvature="0" />
	</g>
	<g
   id="g130">
		<path
   d="m 17.008,259.312 h 8.963 c 3.383,0 6.155,1.512 7.811,4.32 1.26,2.16 1.368,3.131 1.368,8.495 0,5.759 -0.288,6.767 -1.44,8.567 -1.512,2.376 -4.175,4.248 -7.991,4.248 h -8.711 v -25.63 z m 3.888,21.957 h 4.643 c 2.196,0 3.744,-0.756 4.751,-2.232 0.864,-1.296 0.972,-2.016 0.972,-6.767 0,-4.607 -0.108,-5.723 -1.152,-7.127 -1.188,-1.62 -2.484,-2.16 -4.572,-2.16 h -4.643 v 18.286 z"
   id="path132"
   inkscape:connector-curvature="0" />
	</g>
	<g
   id="g134">
		<path
   d="m 35.149,345.809 c -1.008,4.788 -4.607,7.379 -8.999,7.379 -4.031,0 -6.803,-2.375 -8.027,-4.607 -0.828,-1.512 -1.116,-2.268 -1.116,-8.423 0,-6.155 0.288,-6.911 1.116,-8.423 1.224,-2.232 3.996,-4.607 8.027,-4.607 4.859,0 8.207,3.419 8.999,7.595 h -4.104 c -0.612,-1.98 -2.448,-3.708 -4.896,-3.708 -1.835,0 -3.167,0.864 -3.959,1.872 -1.008,1.296 -1.296,2.016 -1.296,7.271 0,5.255 0.288,5.975 1.296,7.271 0.792,1.008 2.124,1.872 3.959,1.872 2.16,0 3.815,-1.188 4.896,-3.492 h 4.104 z"
   id="path136"
   inkscape:connector-curvature="0" />
	</g>
	<g
   id="g138">
		<path
   d="m 17.008,395.375 h 9.935 c 5.003,0 7.595,2.844 7.595,6.875 0,2.124 -0.792,4.175 -3.78,5.507 v 0.072 c 2.808,0.648 4.176,3.312 4.176,5.903 0,4.427 -3.276,7.271 -7.127,7.271 H 17.008 v -25.628 z m 3.888,3.455 v 7.343 h 5.615 c 2.808,0 4.139,-1.656 4.139,-3.671 0,-1.98 -1.332,-3.672 -4.139,-3.672 h -5.615 z m 0,10.799 v 7.703 h 5.975 c 2.879,0 4.175,-1.836 4.175,-3.852 0,-2.016 -1.296,-3.852 -4.175,-3.852 h -5.975 z"
   id="path140"
   inkscape:connector-curvature="0" />
	</g>
	<g
   id="g142">
		<path
   d="m 32.81,483.312 h -9.719 l -1.979,5.724 h -4.104 l 9.323,-25.629 h 3.24 l 9.323,25.629 H 34.79 l -1.98,-5.724 z m -1.116,-3.456 -3.708,-11.194 h -0.072 l -3.708,11.194 h 7.488 z"
   id="path144"
   inkscape:connector-curvature="0" />
	</g>
	<g
   id="g146">
		<path
   d="m 68.133,81.604 c 0,-3.93 2.91,-6.15 6.06,-6.15 3.15,0 6.06,2.22 6.06,6.15 v 9.419 c 0,3.93 -2.91,6.15 -6.06,6.15 -3.15,0 -6.06,-2.22 -6.06,-6.15 v -9.419 z m 9.06,0.179 c 0,-2.07 -1.2,-3.27 -3,-3.27 -1.8,0 -3,1.2 -3,3.27 v 9.06 c 0,2.07 1.2,3.27 3,3.27 1.8,0 3,-1.2 3,-3.27 v -9.06 z"
   id="path148"
   inkscape:connector-curvature="0" />
		<path
   d="m 83.463,93.933 h 3.06 v 3.06 l -3.06,2.22 v -5.28 z"
   id="path150"
   inkscape:connector-curvature="0" />
		<path
   d="m 90.093,75.633 h 11.37 v 3.06 h -8.49 v 4.83 c 1.02,-0.81 2.1,-1.17 3.42,-1.17 1.62,0 3.03,0.72 3.81,1.56 1.17,1.26 1.68,2.31 1.68,5.85 0,2.85 -0.39,3.959 -1.32,5.129 -0.87,1.11 -2.49,2.28 -4.62,2.28 -2.76,0 -5.79,-1.56 -6.24,-5.55 h 3.06 c 0.33,1.53 1.35,2.49 3.06,2.49 3,0 3,-2.58 3,-4.59 0,-2.37 -0.57,-4.11 -3.09,-4.11 -1.17,0 -2.04,0.48 -2.76,1.77 h -2.88 V 75.633 z"
   id="path152"
   inkscape:connector-curvature="0" />
		<path
   d="m 110.373,89.403 -5.37,-5.34 1.65,-1.68 5.34,5.37 5.31,-5.37 1.68,1.68 -5.37,5.34 5.37,5.31 -1.68,1.65 -5.31,-5.37 -5.34,5.37 -1.65,-1.65 5.37,-5.31 z"
   id="path154"
   inkscape:connector-curvature="0" />
		<path
   d="m 126.872,78.513 h -5.85 v -2.88 h 14.939 v 2.88 h -5.85 v 18.479 h -3.24 V 78.513 z"
   id="path156"
   inkscape:connector-curvature="0" />
	</g>
	<g
   id="g158">
		<path
   d="m 222.508,81.604 c 0,-3.93 2.91,-6.15 6.06,-6.15 3.15,0 6.06,2.22 6.06,6.15 v 9.419 c 0,3.93 -2.91,6.15 -6.06,6.15 -3.15,0 -6.06,-2.22 -6.06,-6.15 v -9.419 z m 9.059,0.179 c 0,-2.07 -1.2,-3.27 -3,-3.27 -1.8,0 -3,1.2 -3,3.27 v 9.06 c 0,2.07 1.2,3.27 3,3.27 1.8,0 3,-1.2 3,-3.27 v -9.06 z"
   id="path160"
   inkscape:connector-curvature="0" />
		<path
   d="m 237.837,93.933 h 3.06 v 3.06 l -3.06,2.22 v -5.28 z"
   id="path162"
   inkscape:connector-curvature="0" />
		<path
   d="m 243.927,94.113 8.34,-10.439 c 0.66,-0.84 0.78,-1.5 0.78,-2.13 0,-1.5 -1.11,-3.03 -2.94,-3.03 -1.65,0 -2.97,1.17 -3.12,3.09 h -3.06 c 0.03,-3.48 2.73,-6.15 5.94,-6.15 3.57,0 6.24,2.73 6.24,6.12 0,1.41 -0.39,2.64 -1.29,3.75 l -6.87,8.609 h 8.16 v 3.06 h -12.18 v -2.88 z"
   id="path164"
   inkscape:connector-curvature="0" />
		<path
   d="m 258.867,75.633 h 11.37 v 3.06 h -8.49 v 4.83 c 1.02,-0.81 2.1,-1.17 3.42,-1.17 1.62,0 3.03,0.72 3.81,1.56 1.17,1.26 1.68,2.31 1.68,5.85 0,2.85 -0.39,3.959 -1.32,5.129 -0.87,1.11 -2.49,2.28 -4.62,2.28 -2.76,0 -5.79,-1.56 -6.24,-5.55 h 3.06 c 0.33,1.53 1.35,2.49 3.06,2.49 3,0 3,-2.58 3,-4.59 0,-2.37 -0.57,-4.11 -3.09,-4.11 -1.17,0 -2.04,0.48 -2.76,1.77 h -2.88 V 75.633 z"
   id="path166"
   inkscape:connector-curvature="0" />
		<path
   d="m 279.147,89.403 -5.37,-5.34 1.65,-1.68 5.34,5.37 5.31,-5.37 1.68,1.68 -5.37,5.34 5.37,5.31 -1.68,1.65 -5.31,-5.37 -5.34,5.37 -1.65,-1.65 5.37,-5.31 z"
   id="path168"
   inkscape:connector-curvature="0" />
		<path
   d="m 295.646,78.513 h -5.85 v -2.88 h 14.94 v 2.88 h -5.85 v 18.479 h -3.24 V 78.513 z"
   id="path170"
   inkscape:connector-curvature="0" />
	</g>
	<g
   id="g172">
		<path
   d="m 391.282,81.604 c 0,-3.93 2.91,-6.15 6.061,-6.15 3.149,0 6.06,2.22 6.06,6.15 v 9.419 c 0,3.93 -2.91,6.15 -6.06,6.15 -3.15,0 -6.061,-2.22 -6.061,-6.15 v -9.419 z m 9.06,0.179 c 0,-2.07 -1.199,-3.27 -2.999,-3.27 -1.801,0 -3,1.2 -3,3.27 v 9.06 c 0,2.07 1.199,3.27 3,3.27 1.8,0 2.999,-1.2 2.999,-3.27 v -9.06 z"
   id="path174"
   inkscape:connector-curvature="0" />
		<path
   d="m 406.612,93.933 h 3.06 v 3.06 l -3.06,2.22 v -5.28 z"
   id="path176"
   inkscape:connector-curvature="0" />
		<path
   d="m 413.242,75.634 h 11.369 v 3.06 h -8.489 v 4.83 c 1.02,-0.81 2.1,-1.17 3.42,-1.17 1.62,0 3.029,0.72 3.81,1.56 1.17,1.26 1.68,2.31 1.68,5.85 0,2.85 -0.39,3.959 -1.319,5.129 -0.87,1.11 -2.49,2.28 -4.62,2.28 -2.76,0 -5.79,-1.56 -6.239,-5.55 h 3.06 c 0.33,1.53 1.35,2.49 3.06,2.49 3,0 3,-2.58 3,-4.59 0,-2.37 -0.57,-4.11 -3.09,-4.11 -1.17,0 -2.04,0.48 -2.76,1.77 h -2.88 V 75.634 z"
   id="path178"
   inkscape:connector-curvature="0" />
		<path
   d="m 433.521,89.403 -5.37,-5.34 1.65,-1.68 5.34,5.37 5.31,-5.37 1.68,1.68 -5.37,5.34 5.37,5.31 -1.68,1.65 -5.31,-5.37 -5.34,5.37 -1.65,-1.65 5.37,-5.31 z"
   id="path180"
   inkscape:connector-curvature="0" />
		<path
   d="m 450.021,78.514 h -5.85 v -2.88 h 14.939 v 2.88 h -5.851 V 96.993 H 450.02 V 78.514 z"
   id="path182"
   inkscape:connector-curvature="0" />
	</g>
</g>
<g
   id="Punkte"
   transform="translate(-17.007009,-75.454)">
	<circle
   cx="119.055"
   cy="272.12601"
   r="4.2519999"
   id="circle185"
   sodipodi:cx="119.055"
   sodipodi:cy="272.12601"
   sodipodi:rx="4.2519999"
   sodipodi:ry="4.2519999"
   d="m 123.307,272.12601 c 0,2.34831 -1.90369,4.252 -4.252,4.252 -2.34831,0 -4.252,-1.90369 -4.252,-4.252 0,-2.34832 1.90369,-4.252 4.252,-4.252 2.34831,0 4.252,1.90368 4.252,4.252 z" />
	<circle
   cx="85.040001"
   cy="204.095"
   r="4.2519999"
   id="circle187"
   sodipodi:cx="85.040001"
   sodipodi:cy="204.095"
   sodipodi:rx="4.2519999"
   sodipodi:ry="4.2519999"
   d="m 89.292001,204.095 c 0,2.34832 -1.903685,4.252 -4.252,4.252 -2.348315,0 -4.252,-1.90368 -4.252,-4.252 0,-2.34831 1.903685,-4.252 4.252,-4.252 2.348315,0 4.252,1.90369 4.252,4.252 z" />
	<circle
   cx="272.12601"
   cy="340.15799"
   r="4.2519999"
   id="circle189"
   sodipodi:cx="272.12601"
   sodipodi:cy="340.15799"
   sodipodi:rx="4.2519999"
   sodipodi:ry="4.2519999"
   d="m 276.37801,340.15799 c 0,2.34831 -1.90369,4.252 -4.252,4.252 -2.34832,0 -4.252,-1.90369 -4.252,-4.252 0,-2.34832 1.90368,-4.252 4.252,-4.252 2.34831,0 4.252,1.90368 4.252,4.252 z" />
	<circle
   cx="408.189"
   cy="340.15799"
   r="4.2519999"
   id="circle191"
   sodipodi:cx="408.189"
   sodipodi:cy="340.15799"
   sodipodi:rx="4.2519999"
   sodipodi:ry="4.2519999"
   d="m 412.441,340.15799 c 0,2.34831 -1.90369,4.252 -4.252,4.252 -2.34832,0 -4.252,-1.90369 -4.252,-4.252 0,-2.34832 1.90368,-4.252 4.252,-4.252 2.34831,0 4.252,1.90368 4.252,4.252 z" />
	<circle
   cx="442.20499"
   cy="408.189"
   r="4.2519999"
   id="circle193"
   sodipodi:cx="442.20499"
   sodipodi:cy="408.189"
   sodipodi:rx="4.2519999"
   sodipodi:ry="4.2519999"
   d="m 446.45699,408.189 c 0,2.34831 -1.90369,4.252 -4.252,4.252 -2.34832,0 -4.252,-1.90369 -4.252,-4.252 0,-2.34832 1.90368,-4.252 4.252,-4.252 2.34831,0 4.252,1.90368 4.252,4.252 z" />
	<circle
   cx="255.118"
   cy="272.12601"
   r="4.2519999"
   id="circle195"
   sodipodi:cx="255.118"
   sodipodi:cy="272.12601"
   sodipodi:rx="4.2519999"
   sodipodi:ry="4.2519999"
   d="m 259.37,272.12601 c 0,2.34831 -1.90369,4.252 -4.252,4.252 -2.34832,0 -4.252,-1.90369 -4.252,-4.252 0,-2.34832 1.90368,-4.252 4.252,-4.252 2.34831,0 4.252,1.90368 4.252,4.252 z" />
</g>
</svg>